<svg width="50" height="48" viewBox="0 0 50 48" fill="none" xmlns="http://www.w3.org/2000/svg">
<path d="M26.8398 1.14367L33.4532 14.5438L48.2411 16.6926C49.924 16.9371 50.5958 19.0051 49.3783 20.1921L38.6774 30.6226L41.2035 45.3507C41.491 47.0267 39.7318 48.3048 38.2267 47.5135L24.9999 40.5598L11.7732 47.5135C10.2681 48.3047 8.50897 47.0267 8.79647 45.3507L11.3225 30.6226L0.621793 20.192C-0.595878 19.005 0.0760923 16.9372 1.7589 16.6925L16.5468 14.5437L23.1602 1.14367C23.9128 -0.381224 26.0871 -0.381224 26.8398 1.14367Z" fill="url(#paint0_linear_102_500)"/>
<path d="M33.453 14.5438L26.8397 1.14365C26.4635 0.381248 25.7317 0 25 0V25.3699L33.453 14.5438Z" fill="url(#paint1_linear_102_500)"/>
<path d="M38.6775 30.6225L49.3781 20.1918C49.9788 19.6063 50.1189 18.8066 49.9054 18.1169L25 25.3697L38.6775 30.6225Z" fill="url(#paint2_linear_102_500)"/>
<path d="M40.3935 47.3526L25 25.3699V40.5599L38.2267 47.5135C38.982 47.9106 39.801 47.7864 40.3935 47.3526Z" fill="url(#paint3_linear_102_500)"/>
<path d="M25 25.3699L11.3225 30.6226L8.79651 45.3508C8.65325 46.1857 9.01829 46.9217 9.60647 47.3526L25 25.3699Z" fill="url(#paint4_linear_102_500)"/>
<path d="M0.0944824 18.1171L24.9999 25.3698L16.5468 14.5437L1.75883 16.6926C0.906198 16.8164 0.313818 17.4087 0.0944824 18.1171Z" fill="url(#paint5_linear_102_500)"/>
<path d="M11.3224 30.6224L0.621695 20.1918C0.021014 19.6063 -0.119122 18.8066 0.0944512 18.1169L24.9998 25.3697L11.3224 30.6224Z" fill="url(#paint6_linear_102_500)"/>
<defs>
<linearGradient id="paint0_linear_102_500" x1="25.0008" y1="5.5692" x2="25.0008" y2="60.7384" gradientUnits="userSpaceOnUse">
<stop stop-color="#FFCF95"/>
<stop offset="0.427" stop-color="#FFC954"/>
<stop offset="1" stop-color="#FFC200"/>
</linearGradient>
<linearGradient id="paint1_linear_102_500" x1="37.9594" y1="12.6836" x2="21.2819" y2="12.6836" gradientUnits="userSpaceOnUse">
<stop stop-color="#FFC200" stop-opacity="0"/>
<stop offset="0.203" stop-color="#FFBB00" stop-opacity="0.203"/>
<stop offset="0.499" stop-color="#FFA700" stop-opacity="0.499"/>
<stop offset="0.852" stop-color="#FF8800" stop-opacity="0.852"/>
<stop offset="1" stop-color="#FF7800"/>
</linearGradient>
<linearGradient id="paint2_linear_102_500" x1="40.8085" y1="38.2356" x2="36.3917" y2="16.485" gradientUnits="userSpaceOnUse">
<stop stop-color="#FFC200" stop-opacity="0"/>
<stop offset="0.203" stop-color="#FFBB00" stop-opacity="0.203"/>
<stop offset="0.499" stop-color="#FFA700" stop-opacity="0.499"/>
<stop offset="0.852" stop-color="#FF8800" stop-opacity="0.852"/>
<stop offset="1" stop-color="#FF7800"/>
</linearGradient>
<linearGradient id="paint3_linear_102_500" x1="19.3923" y1="49.6662" x2="36.6907" y2="32.3678" gradientUnits="userSpaceOnUse">
<stop stop-color="#FFC200" stop-opacity="0"/>
<stop offset="0.203" stop-color="#FFBB00" stop-opacity="0.203"/>
<stop offset="0.499" stop-color="#FFA700" stop-opacity="0.499"/>
<stop offset="0.852" stop-color="#FF8800" stop-opacity="0.852"/>
<stop offset="1" stop-color="#FF7800"/>
</linearGradient>
<linearGradient id="paint4_linear_102_500" x1="7.05651" y1="27.7907" x2="19.8069" y2="38.4577" gradientUnits="userSpaceOnUse">
<stop stop-color="#FFC200" stop-opacity="0"/>
<stop offset="0.203" stop-color="#FFBB00" stop-opacity="0.203"/>
<stop offset="0.499" stop-color="#FFA700" stop-opacity="0.499"/>
<stop offset="0.852" stop-color="#FF8800" stop-opacity="0.852"/>
<stop offset="1" stop-color="#FF7800"/>
</linearGradient>
<linearGradient id="paint5_linear_102_500" x1="16.6145" y1="10.1952" x2="11.4477" y2="24.8623" gradientUnits="userSpaceOnUse">
<stop stop-color="#FFC200" stop-opacity="0"/>
<stop offset="0.203" stop-color="#FFBB00" stop-opacity="0.203"/>
<stop offset="0.499" stop-color="#FFA700" stop-opacity="0.499"/>
<stop offset="0.852" stop-color="#FF8800" stop-opacity="0.852"/>
<stop offset="1" stop-color="#FF7800"/>
</linearGradient>
<linearGradient id="paint6_linear_102_500" x1="36.0636" y1="11.7267" x2="-1.89573" y2="27.8938" gradientUnits="userSpaceOnUse">
<stop stop-color="#FFC200" stop-opacity="0"/>
<stop offset="0.203" stop-color="#FFBB00" stop-opacity="0.203"/>
<stop offset="0.499" stop-color="#FFA700" stop-opacity="0.499"/>
<stop offset="0.852" stop-color="#FF8800" stop-opacity="0.852"/>
<stop offset="1" stop-color="#FF7800"/>
</linearGradient>
</defs>
</svg>
