<?xml version="1.0" encoding="UTF-8"?>
<svg xmlns="http://www.w3.org/2000/svg" xmlns:xlink="http://www.w3.org/1999/xlink" width="50px" height="50px" viewBox="0 0 50 50" version="1.1">
<g id="surface1">
<path style=" stroke:none;fill-rule:nonzero;fill:rgb(86.27451%,96.078431%,97.647059%);fill-opacity:1;" d="M 2.929688 29.542969 C 2.929688 29.542969 10.847656 29.847656 14.761719 37.285156 C 16.9375 41.417969 21.648438 42.542969 21.648438 42.542969 C 21.648438 42.542969 13.214844 43.769531 6.753906 39.394531 C 2.394531 36.445312 2.929688 29.542969 2.929688 29.542969 "/>
<path style=" stroke:none;fill-rule:nonzero;fill:rgb(86.27451%,96.078431%,97.647059%);fill-opacity:1;" d="M 3.035156 41.78125 C 3.035156 41.78125 6.066406 43.875 10.855469 42.5 C 13.59375 41.710938 16.058594 41.691406 16.058594 41.691406 C 16.058594 41.691406 14.117188 38.652344 9.199219 38.722656 C 6.222656 38.765625 3.035156 41.78125 3.035156 41.78125 "/>
<path style=" stroke:none;fill-rule:nonzero;fill:rgb(0%,22.352941%,46.666667%);fill-opacity:1;" d="M 42.46875 24.917969 C 42.46875 25.265625 42.714844 25.433594 42.609375 25.925781 C 42.535156 26.25 42.105469 26.382812 41.988281 26.6875 C 41.820312 27.125 42.238281 28.023438 41.699219 28.425781 C 41.308594 28.722656 40.695312 28.613281 40.316406 28.914062 C 39.910156 29.230469 39.8125 29.773438 39.328125 29.953125 C 38.792969 30.15625 38.234375 29.960938 37.632812 29.960938 C 37.09375 29.960938 36.558594 30.175781 36.074219 30.015625 C 35.621094 29.863281 35.472656 29.242188 35.085938 28.976562 C 34.804688 28.78125 34.265625 28.964844 34.027344 28.714844 C 33.757812 28.433594 33.78125 27.625 33.582031 27.289062 C 33.289062 26.8125 32.808594 26.78125 32.679688 26.214844 C 32.585938 25.816406 33.019531 25.246094 33.019531 24.820312 C 33.019531 24.421875 32.582031 24.1875 32.660156 23.816406 C 32.753906 23.371094 33.46875 23.226562 33.660156 22.832031 C 33.828125 22.492188 33.464844 21.902344 33.695312 21.609375 C 33.988281 21.238281 34.867188 21.433594 35.246094 21.15625 C 35.699219 20.824219 35.675781 20.042969 36.21875 19.878906 C 36.664062 19.75 37.003906 20.210938 37.488281 20.210938 C 38.039062 20.210938 38.695312 19.769531 39.195312 19.941406 C 39.625 20.085938 39.699219 20.707031 40.070312 20.960938 C 40.457031 21.226562 41.089844 20.953125 41.390625 21.3125 C 41.726562 21.710938 41.671875 22.269531 41.878906 22.761719 C 42.011719 23.074219 42.480469 23.152344 42.640625 23.707031 C 42.800781 24.273438 42.46875 24.523438 42.46875 24.917969 "/>
<path style=" stroke:none;fill-rule:nonzero;fill:rgb(0%,22.352941%,46.666667%);fill-opacity:1;" d="M 36.144531 22.265625 C 35.683594 22.863281 35.609375 23.675781 35.957031 24.304688 C 35.964844 24.316406 38.523438 24.90625 38.671875 24.910156 C 40.074219 24.960938 39.941406 23.175781 39.726562 22.679688 C 39.207031 21.472656 37.128906 20.980469 36.144531 22.265625 "/>
<path style=" stroke:none;fill-rule:nonzero;fill:rgb(72.54902%,47.058824%,37.647059%);fill-opacity:1;" d="M 37.652344 30.710938 C 38.375 30.730469 39.238281 28.753906 39.503906 28.335938 C 39.503906 28.335938 39.125 28.144531 38.9375 28.089844 C 37.722656 27.722656 37.210938 27.589844 35.765625 28.167969 C 35.59375 28.238281 35.125 28.539062 35.125 28.539062 C 35.136719 28.59375 37.015625 30.691406 37.652344 30.710938 "/>
<path style=" stroke:none;fill-rule:nonzero;fill:rgb(72.54902%,47.058824%,37.647059%);fill-opacity:1;" d="M 36.554688 26.136719 L 38.179688 26.167969 C 38.195312 26.167969 38.207031 26.179688 38.203125 26.195312 L 38.160156 28.539062 C 38.15625 28.703125 38.023438 28.835938 37.855469 28.832031 L 36.777344 28.8125 C 36.609375 28.804688 36.476562 28.671875 36.480469 28.503906 L 36.527344 26.164062 C 36.527344 26.148438 36.539062 26.136719 36.554688 26.136719 "/>
<path style=" stroke:none;fill-rule:nonzero;fill:rgb(76.078431%,52.54902%,43.137255%);fill-opacity:1;" d="M 39.507812 25.003906 C 39.484375 25.21875 39.296875 25.371094 39.085938 25.351562 C 38.875 25.332031 38.722656 25.140625 38.742188 24.929688 C 38.765625 24.714844 38.953125 24.558594 39.164062 24.582031 C 39.375 24.601562 39.527344 24.792969 39.507812 25.003906 "/>
<path style=" stroke:none;fill-rule:nonzero;fill:rgb(76.078431%,52.54902%,43.137255%);fill-opacity:1;" d="M 36.3125 24.664062 C 36.292969 24.875 36.101562 25.03125 35.894531 25.007812 C 35.683594 24.988281 35.527344 24.796875 35.550781 24.585938 C 35.570312 24.371094 35.757812 24.214844 35.96875 24.238281 C 36.179688 24.257812 36.332031 24.449219 36.3125 24.664062 "/>
<path style=" stroke:none;fill-rule:nonzero;fill:rgb(76.078431%,52.54902%,43.137255%);fill-opacity:1;" d="M 39.210938 24.65625 C 39.003906 25.972656 37.910156 26.851562 37.347656 26.792969 C 36.789062 26.738281 35.808594 25.792969 35.945312 24.464844 C 36.078125 23.136719 36.273438 22.027344 37.8125 22.226562 C 40.039062 22.507812 39.3125 24.027344 39.210938 24.65625 "/>
<path style=" stroke:none;fill-rule:nonzero;fill:rgb(0%,22.352941%,46.666667%);fill-opacity:1;" d="M 38.957031 21.898438 C 38.578125 21.539062 37.195312 21.105469 36.257812 21.945312 C 35.074219 23.003906 35.96875 24.242188 35.96875 24.242188 C 35.96875 24.242188 36.078125 23.269531 36.519531 23.015625 C 37.058594 22.710938 37.378906 23.09375 37.675781 23.253906 C 38.203125 23.546875 38.804688 23.035156 39.097656 23.296875 C 39.421875 23.589844 39.222656 24.589844 39.222656 24.589844 C 39.222656 24.589844 39.535156 24.300781 39.640625 23.9375 C 39.910156 23.011719 39.269531 22.1875 38.957031 21.898438 "/>
<path style=" stroke:none;fill-rule:nonzero;fill:rgb(17.647059%,47.843137%,75.294118%);fill-opacity:1;" d="M 42.484375 39.628906 C 41.992188 37.925781 40.933594 36.328125 39.855469 34.316406 C 39.855469 34.316406 38.523438 34.597656 37.496094 34.722656 C 36.25 34.875 35.5 34.628906 35.5 34.628906 C 33.308594 39.027344 33.234375 40.011719 33.308594 41.910156 C 33.332031 42.472656 33.484375 45.328125 33.484375 45.328125 L 38.070312 45.328125 L 38.21875 44.113281 L 38.464844 45.328125 L 42.484375 45.328125 C 42.484375 45.328125 42.632812 42.640625 42.683594 42.066406 C 42.734375 41.492188 42.582031 39.964844 42.484375 39.628906 "/>
<path style=" stroke:none;fill-rule:nonzero;fill:rgb(0%,78.039216%,81.960784%);fill-opacity:1;" d="M 35.453125 34.605469 L 33.546875 38.765625 C 33.546875 38.765625 35.175781 39.128906 35.726562 39.199219 C 37.042969 39.375 37.921875 39.375 37.921875 39.375 L 38.019531 38.578125 L 38.304688 39.328125 C 38.304688 39.328125 39.523438 39.015625 40.324219 38.644531 C 40.929688 38.363281 41.878906 37.808594 41.878906 37.808594 L 39.867188 34.28125 L 35.453125 34.605469 "/>
<path style=" stroke:none;fill-rule:nonzero;fill:rgb(76.078431%,52.54902%,43.137255%);fill-opacity:1;" d="M 30.542969 34.1875 C 30.917969 34.894531 32.410156 37.261719 32.414062 37.335938 C 32.421875 37.535156 32.738281 38.265625 32.847656 38.511719 C 32.984375 38.828125 33.566406 39.488281 33.738281 39.6875 C 33.871094 39.839844 33.976562 39.714844 33.914062 39.601562 C 33.820312 39.421875 33.808594 39.375 33.808594 39.375 C 33.808594 39.375 34.136719 39.746094 34.402344 39.910156 C 34.425781 39.925781 34.613281 39.996094 34.699219 39.894531 C 34.746094 39.835938 34.738281 39.753906 34.699219 39.695312 C 34.453125 39.339844 34.316406 39.011719 34.316406 39.011719 C 34.316406 39.011719 34.515625 39.101562 34.746094 39.398438 C 34.8125 39.484375 34.984375 39.527344 34.902344 39.238281 C 34.796875 38.859375 34.226562 38.207031 34.1875 37.804688 C 34.15625 37.550781 34.242188 37.253906 34.242188 37.253906 C 34.109375 37.171875 33.367188 36.746094 33.25 36.648438 C 32.59375 36.101562 32.136719 34.042969 31.890625 33.785156 C 31.199219 33.042969 30.386719 33.886719 30.542969 34.1875 "/>
<path style=" stroke:none;fill-rule:nonzero;fill:rgb(76.078431%,52.54902%,43.137255%);fill-opacity:1;" d="M 43.796875 38.347656 L 43.484375 39.367188 C 43.484375 39.367188 43.179688 40.035156 42.996094 40.191406 C 42.835938 40.320312 42.285156 40.621094 42.230469 40.515625 C 42.160156 40.375 42.285156 40.332031 42.285156 40.332031 C 42.285156 40.332031 41.910156 40.546875 41.773438 40.59375 C 41.710938 40.617188 41.609375 40.65625 41.554688 40.621094 C 41.515625 40.601562 41.453125 40.523438 41.464844 40.484375 C 41.546875 40.191406 41.75 40.109375 41.75 40.109375 C 41.75 40.109375 41.785156 40.238281 41.320312 40.273438 C 41.203125 40.285156 41.132812 40.171875 41.171875 40.136719 C 41.734375 39.59375 42.117188 39.136719 42.097656 38.605469 L 41.960938 38.242188 L 42.84375 37.652344 C 42.84375 37.652344 43.617188 33.53125 44.460938 34.042969 C 44.683594 34.175781 43.796875 38.347656 43.796875 38.347656 "/>
<path style=" stroke:none;fill-rule:nonzero;fill:rgb(0%,78.039216%,81.960784%);fill-opacity:1;" d="M 44.605469 33.5625 C 44.605469 33.5625 42.136719 30.433594 40.570312 28.957031 C 40.105469 28.515625 38.859375 27.9375 38.859375 27.9375 C 38.859375 27.9375 38.707031 29.183594 37.21875 29.234375 C 35.875 29.285156 35.539062 28.15625 35.539062 28.15625 C 35.539062 28.15625 34.570312 28.621094 34.066406 29.042969 C 33.34375 29.648438 30.664062 32.898438 30.144531 33.695312 C 30.019531 33.886719 30.070312 34.035156 30.140625 34.117188 C 30.535156 34.566406 32.074219 37.210938 32.074219 37.210938 L 33.125 36.386719 L 32.316406 34.117188 C 32.316406 34.117188 34.066406 31.976562 34.34375 32.195312 C 34.800781 32.554688 35.359375 34.261719 35.539062 34.839844 C 35.738281 35.484375 39.613281 35.605469 39.855469 34.316406 C 39.902344 34.039062 39.957031 32.769531 40.375 32.625 C 41.105469 32.375 42.828125 34.074219 42.828125 34.074219 L 42.714844 37.53125 L 44.1875 37.839844 L 44.628906 34 L 44.605469 33.5625 "/>
<path style=" stroke:none;fill-rule:nonzero;fill:rgb(82.745098%,94.901961%,96.862745%);fill-opacity:1;" d="M 26.261719 6.585938 L 10.628906 6.585938 C 9.734375 6.585938 9.011719 7.308594 9.011719 8.199219 L 9.011719 14.957031 C 9.011719 15.847656 9.734375 16.570312 10.628906 16.570312 L 26.261719 16.570312 C 27.152344 16.570312 27.875 15.847656 27.875 14.957031 L 27.875 8.199219 C 27.875 7.308594 27.152344 6.585938 26.261719 6.585938 "/>
<path style=" stroke:none;fill-rule:nonzero;fill:rgb(86.27451%,96.078431%,97.647059%);fill-opacity:1;" d="M 29.089844 9.355469 L 14.878906 9.355469 C 14.070312 9.355469 13.414062 10.011719 13.414062 10.820312 L 13.414062 16.964844 C 13.414062 17.773438 14.070312 18.429688 14.878906 18.429688 L 16.171875 18.429688 L 16.171875 20.464844 L 18.207031 18.429688 L 29.089844 18.429688 C 29.898438 18.429688 30.558594 17.773438 30.558594 16.964844 L 30.558594 10.820312 C 30.558594 10.011719 29.898438 9.355469 29.089844 9.355469 "/>
<path style=" stroke:none;fill-rule:nonzero;fill:rgb(94.901961%,98.431373%,99.215686%);fill-opacity:1;" d="M 23.828125 14.265625 L 16.195312 14.265625 L 16.195312 11.238281 L 23.828125 11.238281 L 23.828125 14.265625 "/>
<path style=" stroke:none;fill-rule:nonzero;fill:rgb(94.901961%,98.431373%,99.215686%);fill-opacity:1;" d="M 27.4375 14.265625 L 25.339844 14.261719 C 25.152344 14.261719 25 14.109375 25 13.925781 C 25 13.738281 25.152344 13.589844 25.339844 13.589844 L 27.4375 13.59375 C 27.625 13.59375 27.777344 13.746094 27.777344 13.933594 C 27.777344 14.117188 27.625 14.265625 27.4375 14.265625 "/>
<path style=" stroke:none;fill-rule:nonzero;fill:rgb(94.901961%,98.431373%,99.215686%);fill-opacity:1;" d="M 27.4375 11.917969 L 25.339844 11.910156 C 25.152344 11.910156 25 11.761719 25 11.574219 C 25 11.390625 25.152344 11.238281 25.339844 11.238281 L 27.4375 11.246094 C 27.625 11.246094 27.777344 11.398438 27.777344 11.582031 C 27.777344 11.769531 27.625 11.917969 27.4375 11.917969 "/>
<path style=" stroke:none;fill-rule:nonzero;fill:rgb(94.901961%,98.431373%,99.215686%);fill-opacity:1;" d="M 27.4375 16.617188 L 16.53125 16.613281 C 16.34375 16.613281 16.195312 16.460938 16.195312 16.277344 C 16.195312 16.089844 16.34375 15.9375 16.53125 15.9375 L 27.4375 15.941406 C 27.625 15.941406 27.777344 16.09375 27.777344 16.28125 C 27.777344 16.464844 27.625 16.617188 27.4375 16.617188 "/>
<path style=" stroke:none;fill-rule:nonzero;fill:rgb(86.27451%,96.078431%,97.647059%);fill-opacity:1;" d="M 3.398438 25.261719 L 3.765625 25.3125 L 3.816406 24.964844 L 3.453125 24.914062 Z M 3.914062 25.507812 L 3.207031 25.40625 L 3.308594 24.71875 L 4.011719 24.820312 L 3.914062 25.507812 "/>
<path style=" stroke:none;fill-rule:nonzero;fill:rgb(0%,26.27451%,50.588235%);fill-opacity:1;" d="M 25.746094 26.710938 C 26.214844 26.648438 26.972656 27.976562 27.214844 29.191406 C 27.652344 31.429688 28.027344 32.109375 28.023438 33.964844 C 28.023438 34.378906 27.273438 38.125 27.273438 38.125 L 26.296875 37.332031 L 26.53125 34.523438 C 26.53125 34.523438 25.136719 26.796875 25.746094 26.710938 "/>
<path style=" stroke:none;fill-rule:nonzero;fill:rgb(0%,84.705882%,61.960784%);fill-opacity:1;" d="M 25.933594 34.816406 L 22.265625 34.917969 L 21.730469 27.378906 L 25.117188 27.507812 L 25.933594 34.816406 "/>
<path style=" stroke:none;fill-rule:nonzero;fill:rgb(100%,81.568627%,80.784314%);fill-opacity:1;" d="M 20.15625 45.328125 L 23.476562 45.328125 C 23.542969 44.128906 23.597656 42.953125 23.597656 42.953125 L 19.707031 39.332031 C 19.707031 39.332031 19.785156 41.957031 19.863281 42.953125 C 19.910156 43.535156 20.035156 44.484375 20.15625 45.328125 "/>
<path style=" stroke:none;fill-rule:nonzero;fill:rgb(100%,81.568627%,80.784314%);fill-opacity:1;" d="M 28.023438 45.328125 C 27.597656 42.933594 27.144531 40.597656 27.144531 40.597656 L 23.839844 42.101562 C 23.839844 42.101562 24.367188 43.578125 24.933594 45.328125 L 28.023438 45.328125 "/>
<path style=" stroke:none;fill-rule:nonzero;fill:rgb(0%,58.823529%,77.647059%);fill-opacity:1;" d="M 23.664062 41.167969 C 22.585938 41.265625 19.402344 40.320312 19.472656 38.882812 C 19.550781 37.316406 20.929688 34.6875 20.929688 34.6875 L 25.960938 34.59375 C 25.960938 34.59375 27.21875 37.382812 27.464844 38.417969 C 27.859375 40.101562 24.710938 41.070312 23.664062 41.167969 "/>
<path style=" stroke:none;fill-rule:nonzero;fill:rgb(91.764706%,39.607843%,61.568627%);fill-opacity:1;" d="M 21.855469 20.339844 C 20.210938 22.410156 20.480469 25.277344 20.917969 25.832031 C 21.496094 26.574219 24.5625 26.097656 25.851562 26.28125 C 26.097656 26.3125 26.933594 23.609375 25.914062 20.910156 C 25.417969 19.605469 22.84375 19.09375 21.855469 20.339844 "/>
<path style=" stroke:none;fill-rule:nonzero;fill:rgb(100%,77.647059%,76.470588%);fill-opacity:1;" d="M 23.59375 28.402344 C 24.304688 28.328125 25.148438 27.257812 25.441406 26.863281 C 25.441406 26.863281 25.078125 26.652344 24.898438 26.582031 C 23.722656 26.144531 23.230469 25.980469 21.769531 26.460938 C 21.597656 26.519531 21.117188 26.785156 21.117188 26.785156 C 21.125 26.839844 22.878906 28.476562 23.59375 28.402344 "/>
<path style=" stroke:none;fill-rule:nonzero;fill:rgb(100%,77.647059%,76.470588%);fill-opacity:1;" d="M 23.984375 24.339844 L 22.488281 24.324219 C 22.445312 24.324219 22.414062 24.359375 22.410156 24.410156 L 22.390625 26.203125 C 22.386719 26.75 22.796875 27.074219 23.253906 27.078125 C 23.707031 27.082031 24.03125 26.691406 24.039062 26.148438 L 24.058594 24.429688 C 24.058594 24.378906 24.027344 24.339844 23.984375 24.339844 "/>
<path style=" stroke:none;fill-rule:nonzero;fill:rgb(100%,77.647059%,76.470588%);fill-opacity:1;" d="M 25.589844 23.160156 C 25.578125 23.371094 25.398438 23.53125 25.1875 23.515625 C 24.980469 23.5 24.820312 23.320312 24.835938 23.109375 C 24.851562 22.898438 25.03125 22.738281 25.238281 22.753906 C 25.449219 22.765625 25.605469 22.949219 25.589844 23.160156 "/>
<path style=" stroke:none;fill-rule:nonzero;fill:rgb(100%,81.568627%,80.784314%);fill-opacity:1;" d="M 23.960938 20.738281 C 23.113281 20.679688 22.375 21.339844 22.316406 22.214844 L 22.214844 23.652344 C 22.15625 24.527344 23.027344 25.296875 23.832031 25.351562 C 24.71875 25.414062 25.230469 24.738281 25.289062 23.863281 L 25.386719 22.425781 C 25.449219 21.550781 24.808594 20.796875 23.960938 20.738281 "/>
<path style=" stroke:none;fill-rule:nonzero;fill:rgb(91.764706%,39.607843%,61.568627%);fill-opacity:1;" d="M 25.117188 20.230469 C 24.738281 19.890625 23.730469 19.566406 22.75 20.300781 C 21.746094 21.054688 22.125 22.625 22.296875 22.515625 C 22.867188 22.148438 22.804688 21.566406 23.316406 21.582031 C 23.730469 21.59375 24.324219 22.734375 25.679688 23.019531 C 25.785156 23.039062 25.992188 22.292969 25.957031 21.925781 C 25.847656 20.867188 25.425781 20.511719 25.117188 20.230469 "/>
<path style=" stroke:none;fill-rule:nonzero;fill:rgb(10.196078%,10.588235%,36.078431%);fill-opacity:1;" d="M 23.851562 22.945312 C 23.835938 23.160156 23.660156 23.328125 23.460938 23.3125 L 23.34375 23.304688 C 23.082031 23.285156 22.878906 23.042969 22.898438 22.757812 C 22.90625 22.667969 22.980469 22.597656 23.066406 22.601562 L 23.714844 22.644531 C 23.800781 22.652344 23.863281 22.730469 23.859375 22.820312 Z M 23.71875 22.5625 L 23.074219 22.519531 C 22.941406 22.511719 22.832031 22.617188 22.820312 22.753906 C 22.796875 23.082031 23.03125 23.367188 23.339844 23.386719 L 23.453125 23.394531 C 23.699219 23.410156 23.910156 23.214844 23.929688 22.953125 L 23.9375 22.828125 C 23.945312 22.691406 23.847656 22.570312 23.71875 22.5625 "/>
<path style=" stroke:none;fill-rule:nonzero;fill:rgb(10.196078%,10.588235%,36.078431%);fill-opacity:1;" d="M 24.476562 22.863281 C 24.480469 22.773438 24.558594 22.703125 24.640625 22.710938 L 25.292969 22.753906 C 25.375 22.757812 25.441406 22.839844 25.4375 22.929688 C 25.417969 23.214844 25.1875 23.429688 24.921875 23.410156 L 24.804688 23.402344 C 24.605469 23.390625 24.453125 23.203125 24.46875 22.988281 Z M 24.398438 22.859375 L 24.390625 22.984375 C 24.371094 23.246094 24.558594 23.46875 24.800781 23.488281 L 24.917969 23.496094 C 25.222656 23.515625 25.492188 23.265625 25.515625 22.933594 C 25.523438 22.796875 25.425781 22.675781 25.296875 22.667969 L 24.648438 22.625 C 24.519531 22.617188 24.40625 22.722656 24.398438 22.859375 "/>
<path style=" stroke:none;fill-rule:nonzero;fill:rgb(10.196078%,10.588235%,36.078431%);fill-opacity:1;" d="M 24.351562 22.855469 C 24.25 22.761719 24.097656 22.75 23.984375 22.828125 C 23.964844 22.839844 23.960938 22.863281 23.972656 22.878906 C 23.980469 22.898438 24.003906 22.902344 24.019531 22.890625 C 24.109375 22.832031 24.226562 22.839844 24.304688 22.914062 C 24.3125 22.917969 24.316406 22.921875 24.324219 22.921875 C 24.335938 22.921875 24.347656 22.917969 24.355469 22.910156 C 24.367188 22.894531 24.367188 22.871094 24.351562 22.855469 "/>
<path style=" stroke:none;fill-rule:nonzero;fill:rgb(100%,77.647059%,76.470588%);fill-opacity:1;" d="M 21.886719 22.910156 C 21.902344 22.699219 22.082031 22.539062 22.292969 22.554688 C 22.5 22.566406 22.65625 22.75 22.644531 22.960938 C 22.628906 23.171875 22.449219 23.332031 22.242188 23.316406 C 22.03125 23.300781 21.875 23.121094 21.886719 22.910156 "/>
<path style=" stroke:none;fill-rule:nonzero;fill:rgb(0%,22.352941%,46.666667%);fill-opacity:1;" d="M 22.296875 26.214844 C 22.296875 26.214844 23.976562 29.976562 24.105469 31.160156 C 24.285156 32.804688 24.394531 37.363281 24.394531 37.363281 L 19.84375 37.109375 L 20.144531 32.664062 C 20.144531 32.664062 19.292969 28.265625 20.355469 27.175781 C 20.734375 26.785156 22.296875 26.214844 22.296875 26.214844 "/>
<path style=" stroke:none;fill-rule:nonzero;fill:rgb(0%,22.352941%,46.666667%);fill-opacity:1;" d="M 24.179688 26.28125 C 24.179688 26.28125 25.074219 29.878906 25.105469 31.605469 C 25.132812 33.183594 25.011719 37.363281 25.011719 37.363281 L 27 36.960938 C 27 36.960938 27.011719 35 26.914062 33.070312 C 26.773438 30.226562 26.742188 28.367188 25.933594 27.078125 C 25.621094 26.585938 24.179688 26.28125 24.179688 26.28125 "/>
<path style=" stroke:none;fill-rule:nonzero;fill:rgb(0%,58.823529%,77.647059%);fill-opacity:1;" d="M 23.738281 45.328125 L 24.34375 40.597656 C 24.34375 40.597656 19.582031 37.617188 19.484375 38.75 C 19.378906 39.964844 19.574219 42.765625 19.808594 45.328125 L 23.738281 45.328125 "/>
<path style=" stroke:none;fill-rule:nonzero;fill:rgb(0%,58.823529%,77.647059%);fill-opacity:1;" d="M 28.476562 45.328125 C 28.1875 42.847656 27.820312 40.054688 27.464844 38.417969 C 27.238281 37.375 23.660156 41.328125 23.660156 41.328125 L 24.660156 45.328125 L 28.476562 45.328125 "/>
<path style=" stroke:none;fill-rule:nonzero;fill:rgb(65.098039%,93.333333%,91.372549%);fill-opacity:1;" d="M 23.640625 31.847656 L 23.816406 31.453125 L 25.3125 31.484375 L 25.46875 31.882812 "/>
<path style=" stroke:none;fill-rule:nonzero;fill:rgb(34.509804%,85.882353%,85.882353%);fill-opacity:1;" d="M 25.488281 32.117188 L 25.214844 34.195312 C 25.203125 34.285156 25.125 34.351562 25.035156 34.347656 L 23.96875 34.324219 C 23.878906 34.324219 23.808594 34.253906 23.796875 34.164062 L 23.613281 32.054688 L 25.488281 32.117188 "/>
<path style=" stroke:none;fill-rule:nonzero;fill:rgb(74.117647%,100%,84.705882%);fill-opacity:1;" d="M 25.613281 32.167969 L 23.484375 32.125 L 23.496094 31.710938 L 25.621094 31.757812 L 25.613281 32.167969 "/>
<path style=" stroke:none;fill-rule:nonzero;fill:rgb(100%,81.568627%,80.784314%);fill-opacity:1;" d="M 23.859375 33.976562 C 23.636719 34.050781 22.902344 33.933594 22.410156 33.867188 L 22.296875 33.210938 C 22.296875 33.210938 22.804688 33.132812 22.875 33.117188 C 23.3125 33.003906 23.851562 32.691406 24.285156 32.554688 C 24.5 32.488281 25.386719 32.679688 25.386719 32.679688 C 25.386719 32.679688 25.3125 32.796875 25.242188 32.835938 C 25.085938 32.921875 24.480469 32.832031 24.480469 32.832031 L 25.035156 33.214844 L 25.300781 33.609375 C 25.300781 33.609375 25.253906 33.667969 25.125 33.671875 C 25.015625 33.675781 24.832031 33.410156 24.832031 33.410156 L 24.496094 33.363281 L 25.074219 34.03125 C 25.074219 34.03125 24.925781 34.148438 24.867188 34.160156 C 24.800781 34.171875 24.605469 34.113281 24.605469 34.113281 C 24.605469 34.113281 24.539062 34.1875 24.515625 34.195312 C 24.304688 34.242188 24.011719 33.925781 23.859375 33.976562 "/>
<path style=" stroke:none;fill-rule:nonzero;fill:rgb(0%,26.27451%,50.588235%);fill-opacity:1;" d="M 20.496094 27.285156 C 19.917969 27.1875 19.074219 27.9375 18.683594 29.304688 C 18.117188 31.28125 18.121094 32.425781 18.035156 34.535156 C 18 35.433594 18.5 35.25 18.78125 35.238281 C 21.117188 35.152344 23.027344 34.347656 23.027344 34.347656 L 22.820312 32.859375 L 20.109375 33.023438 L 20.644531 29.476562 C 20.644531 29.476562 20.820312 27.339844 20.496094 27.285156 "/>
<path style=" stroke:none;fill-rule:nonzero;fill:rgb(0%,81.568627%,73.72549%);fill-opacity:1;" d="M 17.425781 34.074219 C 17.789062 35.445312 18.292969 37.882812 18.292969 37.882812 C 18.292969 37.882812 19.351562 38.351562 22.433594 38.542969 C 22.609375 38.554688 22.703125 38.710938 22.800781 38.875 C 22.816406 38.898438 23.171875 38.96875 23.261719 39.023438 C 23.414062 39.117188 23.070312 40.285156 22.921875 40.636719 C 22.800781 40.933594 22.496094 40.765625 22.496094 40.765625 C 22.496094 40.765625 22.386719 40.925781 22.210938 40.992188 C 20.988281 41.453125 17.402344 40.554688 16.464844 40.222656 C 16.304688 40.167969 16.429688 40.0625 16.289062 39.753906 C 15.371094 37.742188 15.359375 35.070312 15.546875 33.679688 C 15.582031 33.394531 15.917969 32.707031 16.148438 32.703125 C 16.800781 32.695312 17.160156 33.074219 17.425781 34.074219 "/>
<path style=" stroke:none;fill-rule:nonzero;fill:rgb(0%,39.215686%,62.352941%);fill-opacity:1;" d="M 16.714844 26.015625 C 15.917969 26.515625 15.394531 27.671875 15.816406 28.480469 C 16.183594 29.183594 18.425781 29.789062 18.589844 29.828125 C 20.125 30.222656 20.316406 28.445312 20.121094 27.625 C 19.804688 26.25 18.203125 25.085938 16.714844 26.015625 "/>
<path style=" stroke:none;fill-rule:nonzero;fill:rgb(100%,77.647059%,76.470588%);fill-opacity:1;" d="M 14.183594 33.929688 C 14.875 34.253906 16.34375 33.964844 16.78125 33.671875 C 16.78125 33.671875 16.523438 32.425781 16.367188 32.292969 C 15.34375 31.421875 15.363281 31.5625 13.714844 31.519531 C 13.519531 31.511719 13.191406 32.292969 13.191406 32.292969 C 13.179688 32.351562 13.578125 33.640625 14.183594 33.929688 "/>
<path style=" stroke:none;fill-rule:nonzero;fill:rgb(100%,77.647059%,76.470588%);fill-opacity:1;" d="M 16.046875 28.925781 L 17.023438 30.832031 C 17.066406 30.847656 17.085938 30.894531 17.074219 30.9375 L 16.289062 32.667969 C 16.128906 33.128906 15.914062 33.066406 15.449219 32.90625 C 14.984375 32.746094 14.625 32.195312 14.785156 31.734375 L 15.941406 28.976562 C 15.957031 28.933594 16.003906 28.910156 16.046875 28.925781 "/>
<path style=" stroke:none;fill-rule:nonzero;fill:rgb(0%,39.215686%,62.352941%);fill-opacity:1;" d="M 15.90625 29.070312 L 15.75 28.023438 C 15.75 28.023438 15.003906 29.0625 14.59375 29.859375 C 13.925781 31.167969 13.804688 32.269531 14.390625 33.367188 C 14.933594 34.375 14.570312 34.8125 14.59375 34.816406 C 14.59375 34.816406 15.410156 33.902344 15.351562 33.242188 C 15.199219 31.539062 15.265625 31.265625 15.3125 30.726562 C 15.378906 29.96875 15.90625 29.070312 15.90625 29.070312 "/>
<path style=" stroke:none;fill-rule:nonzero;fill:rgb(100%,77.647059%,76.470588%);fill-opacity:1;" d="M 15.65625 28.625 C 15.621094 28.847656 15.773438 29.058594 15.992188 29.09375 C 16.214844 29.128906 16.421875 28.976562 16.457031 28.75 C 16.492188 28.527344 16.339844 28.316406 16.121094 28.285156 C 15.898438 28.25 15.691406 28.402344 15.65625 28.625 "/>
<path style=" stroke:none;fill-rule:nonzero;fill:rgb(100%,81.568627%,80.784314%);fill-opacity:1;" d="M 19.417969 29.886719 C 19.027344 31.230469 17.816406 31.878906 17.3125 31.628906 C 16.265625 31.105469 15.765625 30.101562 16.152344 28.761719 C 16.539062 27.421875 17.542969 26.714844 18.457031 26.980469 C 19.375 27.246094 19.804688 28.546875 19.417969 29.886719 "/>
<path style=" stroke:none;fill-rule:nonzero;fill:rgb(0%,39.215686%,62.352941%);fill-opacity:1;" d="M 17.601562 26.324219 C 16.363281 26.5 16.101562 28.207031 16.121094 28.285156 C 16.148438 28.40625 16.308594 28.523438 16.378906 28.519531 C 17.648438 28.445312 19.320312 27.886719 19.320312 27.886719 C 19.320312 27.886719 20.15625 29.132812 18.613281 31.921875 C 18.613281 31.921875 19.535156 30.980469 19.960938 29.472656 C 20.503906 27.558594 19.402344 26.070312 17.601562 26.324219 "/>
<path style=" stroke:none;fill-rule:nonzero;fill:rgb(0%,39.215686%,62.352941%);fill-opacity:1;" d="M 21.878906 45.328125 C 19.765625 43.769531 17.304688 42.554688 17.304688 42.554688 C 16.867188 41.203125 16.398438 39.988281 16.398438 39.988281 L 10.386719 40.554688 C 10.386719 40.554688 9.917969 43.554688 9.8125 45.328125 L 21.878906 45.328125 "/>
<path style=" stroke:none;fill-rule:nonzero;fill:rgb(20.392157%,91.764706%,74.509804%);fill-opacity:1;" d="M 17.15625 34.03125 C 17.066406 33.636719 16.503906 32.550781 16.503906 32.550781 L 16.289062 32.839844 L 14.4375 31.421875 C 14.4375 31.421875 12.523438 31.742188 12.003906 32.164062 C 11.054688 32.933594 10.644531 34.570312 10.449219 35.730469 C 10.371094 36.195312 9.976562 38.007812 10.085938 39.859375 C 10.117188 40.378906 10.058594 41.371094 10.472656 41.570312 C 11.832031 42.234375 16.277344 41.75 16.707031 40.8125 C 16.9375 40.316406 16.300781 38.46875 16.585938 37.742188 C 16.734375 37.371094 17.113281 36.777344 17.28125 36.417969 C 17.644531 35.660156 17.257812 34.464844 17.15625 34.03125 "/>
<path style=" stroke:none;fill-rule:nonzero;fill:rgb(0%,81.568627%,73.72549%);fill-opacity:1;" d="M 17.078125 33.023438 C 17.058594 33.007812 16.457031 32.429688 16.457031 32.429688 L 16.289062 32.839844 C 16.289062 32.839844 16.699219 33.695312 16.707031 33.671875 C 16.871094 33.292969 17.078125 33.023438 17.078125 33.023438 "/>
<path style=" stroke:none;fill-rule:nonzero;fill:rgb(0%,81.568627%,73.72549%);fill-opacity:1;" d="M 16.289062 32.839844 L 15.839844 33.777344 C 15.121094 33.296875 13.28125 31.605469 13.28125 31.605469 L 14.234375 31.121094 L 16.289062 32.839844 "/>
<path style=" stroke:none;fill-rule:nonzero;fill:rgb(0%,39.215686%,62.352941%);fill-opacity:1;" d="M 15.023438 29.207031 C 13.335938 31.449219 14.007812 34.582031 14.007812 34.582031 L 15.796875 34.699219 C 15.796875 34.699219 14.929688 32.746094 15.414062 30.117188 C 15.550781 29.371094 15.5625 28.488281 15.023438 29.207031 "/>
<path style=" stroke:none;fill-rule:nonzero;fill:rgb(100%,81.568627%,80.784314%);fill-opacity:1;" d="M 22.199219 40.484375 C 22.183594 40.46875 21.75 40.058594 21.453125 40.007812 C 20.863281 39.90625 19.761719 40.210938 19.183594 40.351562 C 18.59375 40.492188 18.082031 40.617188 18.089844 41.160156 C 18.089844 41.453125 18.554688 41.804688 18.8125 41.851562 C 19.167969 41.910156 19.820312 41.71875 20.175781 41.773438 C 20.382812 41.804688 20.699219 41.894531 20.886719 41.996094 C 20.949219 42.027344 21.078125 42.101562 21.152344 42.09375 C 21.179688 42.089844 21.25 42.03125 21.25 42.03125 C 21.25 42.03125 21.441406 42.21875 21.523438 42.246094 C 21.601562 42.269531 21.847656 42.214844 21.847656 42.214844 L 21.148438 41.058594 L 21.707031 41.457031 C 21.707031 41.457031 21.988281 41.816406 22.121094 41.878906 C 22.273438 41.949219 22.382812 41.832031 22.382812 41.832031 L 21.644531 40.574219 C 21.644531 40.574219 22.300781 41.042969 22.535156 41.03125 C 22.640625 41.027344 22.800781 40.933594 22.800781 40.933594 L 22.199219 40.484375 "/>
<path style=" stroke:none;fill-rule:nonzero;fill:rgb(0%,81.568627%,73.72549%);fill-opacity:1;" d="M 13.464844 33.777344 C 13.808594 35.050781 13.550781 38.699219 13.550781 38.699219 C 13.550781 38.699219 15.09375 39.050781 17.707031 39.664062 C 17.878906 39.707031 17.964844 39.871094 18.058594 40.035156 C 18.078125 40.058594 18.472656 40.191406 18.515625 40.308594 C 18.667969 40.703125 18.332031 41.652344 17.925781 41.777344 C 17.859375 41.796875 17.324219 41.679688 17.324219 41.679688 C 17.324219 41.679688 17.105469 41.765625 16.917969 41.757812 C 14.015625 41.632812 11.695312 41.617188 10.707031 40.328125 C 10.648438 40.25 10.617188 40.050781 10.609375 39.953125 C 10.457031 38.585938 10.84375 35.867188 10.851562 34.332031 C 10.855469 33.757812 11.789062 32.253906 12.277344 32.15625 C 12.917969 32.03125 13.195312 32.78125 13.464844 33.777344 "/>
<path style=" stroke:none;fill-rule:nonzero;fill:rgb(100%,81.568627%,80.784314%);fill-opacity:1;" d="M 22.519531 39.542969 C 22.617188 39.101562 22.765625 39.167969 23.371094 39.132812 C 23.96875 39.101562 25.148438 39.046875 25.707031 39.253906 C 25.988281 39.355469 26.441406 40.078125 26.453125 40.097656 L 26.640625 40.511719 C 26.640625 40.511719 26.453125 40.652344 26.402344 40.546875 C 26.203125 40.152344 25.90625 39.972656 25.90625 39.972656 L 26.582031 40.6875 C 26.582031 40.6875 26.476562 40.804688 26.308594 40.792969 C 26.167969 40.785156 26.023438 40.625 25.933594 40.546875 C 25.765625 40.402344 25.445312 40.105469 25.445312 40.105469 L 25.953125 41.097656 C 25.96875 41.128906 25.945312 41.167969 25.910156 41.167969 C 25.828125 41.164062 25.714844 41.148438 25.65625 41.109375 C 25.582031 41.0625 25.191406 40.664062 25.089844 40.425781 C 25.0625 40.363281 24.742188 40.226562 24.597656 40.210938 C 24.484375 40.195312 24.207031 40.429688 24.621094 40.460938 C 24.746094 40.472656 24.953125 40.421875 25.074219 40.535156 C 25.09375 40.558594 25.167969 40.640625 25.101562 40.6875 C 25.042969 40.730469 24.863281 40.8125 24.722656 40.824219 C 24.496094 40.847656 24.3125 40.886719 24.230469 40.898438 C 23.660156 40.96875 23.433594 40.746094 23.230469 40.667969 C 22.496094 40.378906 22.457031 39.835938 22.519531 39.542969 "/>
<path style=" stroke:none;fill-rule:nonzero;fill:rgb(54.901961%,91.764706%,90.588235%);fill-opacity:1;" d="M 29.421875 42.308594 L 21.910156 42.308594 L 24.296875 37.132812 C 24.398438 36.902344 24.679688 36.746094 24.949219 36.761719 L 31.058594 37.113281 C 31.339844 37.128906 31.496094 37.367188 31.390625 37.621094 L 29.421875 42.308594 "/>
<path style=" stroke:none;fill-rule:nonzero;fill:rgb(39.607843%,84.313725%,80%);fill-opacity:1;" d="M 29.253906 42.308594 L 18.464844 42.308594 L 18.464844 42.089844 C 18.464844 42.039062 18.507812 41.996094 18.5625 41.996094 L 29.253906 41.996094 L 29.253906 42.308594 "/>
<path style=" stroke:none;fill-rule:nonzero;fill:rgb(89.019608%,89.019608%,91.372549%);fill-opacity:1;" d="M 45.226562 43.523438 L 6.015625 43.523438 L 6.015625 42.300781 L 45.226562 42.300781 L 45.226562 43.523438 "/>
<path style=" stroke:none;fill-rule:nonzero;fill:rgb(86.27451%,96.078431%,97.647059%);fill-opacity:1;" d="M 11.640625 20.996094 L 11.640625 21.683594 L 12.78125 21.683594 C 12.796875 21.683594 12.808594 21.671875 12.808594 21.65625 C 12.808594 21.640625 12.796875 21.628906 12.78125 21.628906 C 12.730469 21.628906 12.691406 21.585938 12.691406 21.539062 C 12.691406 21.488281 12.730469 21.449219 12.78125 21.449219 L 12.847656 21.449219 C 12.871094 21.449219 12.894531 21.429688 12.894531 21.402344 C 12.894531 21.378906 12.871094 21.355469 12.847656 21.355469 C 12.796875 21.355469 12.757812 21.316406 12.757812 21.269531 C 12.757812 21.21875 12.796875 21.179688 12.847656 21.179688 L 12.867188 21.179688 C 12.894531 21.179688 12.917969 21.15625 12.917969 21.128906 C 12.917969 21.097656 12.894531 21.074219 12.867188 21.074219 L 12.847656 21.074219 C 12.796875 21.074219 12.757812 21.035156 12.757812 20.984375 C 12.757812 20.9375 12.796875 20.894531 12.847656 20.894531 C 12.871094 20.894531 12.894531 20.875 12.894531 20.847656 C 12.894531 20.824219 12.871094 20.804688 12.847656 20.804688 L 12.359375 20.804688 C 12.324219 20.804688 12.296875 20.789062 12.28125 20.761719 C 12.265625 20.730469 12.265625 20.699219 12.277344 20.671875 C 12.28125 20.667969 12.347656 20.535156 12.285156 20.308594 C 12.277344 20.277344 12.265625 20.257812 12.25 20.25 C 12.25 20.3125 12.246094 20.398438 12.210938 20.476562 C 12.171875 20.5625 12.097656 20.644531 12.039062 20.691406 C 11.910156 20.796875 11.886719 20.914062 11.886719 20.917969 C 11.878906 20.960938 11.84375 20.992188 11.796875 20.992188 Z M 11.546875 21.863281 C 11.523438 21.863281 11.503906 21.855469 11.484375 21.835938 C 11.46875 21.820312 11.457031 21.796875 11.457031 21.773438 L 11.457031 20.90625 C 11.457031 20.855469 11.5 20.816406 11.546875 20.816406 L 11.730469 20.816406 C 11.757812 20.746094 11.8125 20.644531 11.925781 20.550781 C 11.96875 20.519531 12.023438 20.460938 12.042969 20.410156 C 12.089844 20.308594 12.058594 20.1875 12.058594 20.183594 C 12.050781 20.140625 12.074219 20.09375 12.117188 20.078125 C 12.128906 20.074219 12.230469 20.039062 12.328125 20.089844 C 12.371094 20.109375 12.429688 20.160156 12.457031 20.257812 C 12.5 20.414062 12.496094 20.539062 12.480469 20.625 L 12.847656 20.625 C 12.972656 20.625 13.074219 20.726562 13.074219 20.847656 C 13.074219 20.894531 13.058594 20.9375 13.039062 20.96875 C 13.078125 21.011719 13.101562 21.066406 13.101562 21.128906 C 13.101562 21.1875 13.078125 21.242188 13.039062 21.28125 C 13.058594 21.316406 13.074219 21.359375 13.074219 21.402344 C 13.074219 21.480469 13.035156 21.546875 12.976562 21.585938 C 12.984375 21.609375 12.988281 21.632812 12.988281 21.65625 C 12.988281 21.769531 12.894531 21.863281 12.78125 21.863281 L 11.546875 21.863281 "/>
<path style=" stroke:none;fill-rule:nonzero;fill:rgb(86.27451%,96.078431%,97.647059%);fill-opacity:1;" d="M 46.085938 8.925781 L 45.96875 8.96875 C 45.925781 8.984375 45.898438 9.027344 45.910156 9.074219 C 45.914062 9.101562 45.9375 9.117188 45.964844 9.113281 C 46.472656 9.058594 46.902344 8.582031 46.90625 8.078125 C 46.90625 8.050781 46.882812 8.027344 46.855469 8.023438 C 46.808594 8.019531 46.765625 8.046875 46.757812 8.09375 L 46.726562 8.226562 C 46.730469 8.242188 46.753906 8.273438 46.78125 8.292969 C 46.804688 8.316406 46.8125 8.347656 46.808594 8.378906 C 46.765625 8.597656 46.46875 8.921875 46.25 8.984375 C 46.222656 8.996094 46.191406 8.988281 46.167969 8.96875 C 46.140625 8.945312 46.101562 8.925781 46.085938 8.925781 Z M 45.957031 9.296875 C 45.851562 9.296875 45.757812 9.222656 45.734375 9.113281 C 45.703125 8.980469 45.777344 8.84375 45.90625 8.800781 L 46.03125 8.753906 C 46.105469 8.726562 46.1875 8.761719 46.238281 8.796875 C 46.375 8.730469 46.566406 8.527344 46.617188 8.386719 C 46.578125 8.339844 46.53125 8.265625 46.550781 8.183594 L 46.582031 8.054688 C 46.609375 7.917969 46.734375 7.832031 46.871094 7.84375 C 46.992188 7.855469 47.085938 7.957031 47.085938 8.078125 C 47.082031 8.679688 46.589844 9.222656 45.984375 9.292969 C 45.976562 9.292969 45.96875 9.296875 45.957031 9.296875 "/>
<path style=" stroke:none;fill-rule:nonzero;fill:rgb(86.27451%,96.078431%,97.647059%);fill-opacity:1;" d="M 39.722656 13.78125 C 39.332031 13.859375 39.078125 14.234375 39.152344 14.625 C 39.230469 15.015625 39.609375 15.269531 40 15.191406 C 40.386719 15.113281 40.640625 14.734375 40.566406 14.347656 C 40.488281 13.957031 40.109375 13.703125 39.722656 13.78125 Z M 40.035156 15.367188 C 39.546875 15.464844 39.074219 15.148438 38.976562 14.660156 C 38.882812 14.175781 39.199219 13.699219 39.6875 13.605469 C 40.171875 13.507812 40.644531 13.828125 40.742188 14.3125 C 40.839844 14.800781 40.519531 15.273438 40.035156 15.367188 "/>
<path style=" stroke:none;fill-rule:nonzero;fill:rgb(86.27451%,96.078431%,97.647059%);fill-opacity:1;" d="M 39.773438 14.050781 C 39.535156 14.097656 39.378906 14.332031 39.425781 14.574219 C 39.472656 14.8125 39.707031 14.96875 39.945312 14.921875 C 40.1875 14.875 40.34375 14.640625 40.296875 14.398438 C 40.246094 14.164062 40.011719 14.003906 39.773438 14.050781 Z M 39.980469 15.097656 C 39.644531 15.164062 39.316406 14.945312 39.25 14.605469 C 39.183594 14.269531 39.402344 13.941406 39.738281 13.875 C 40.078125 13.808594 40.402344 14.027344 40.472656 14.367188 C 40.539062 14.703125 40.316406 15.03125 39.980469 15.097656 "/>
<path style=" stroke:none;fill-rule:nonzero;fill:rgb(86.27451%,96.078431%,97.647059%);fill-opacity:1;" d="M 39.941406 13.738281 C 39.890625 13.746094 39.84375 13.714844 39.835938 13.664062 L 39.761719 13.296875 C 39.75 13.246094 39.78125 13.199219 39.832031 13.191406 C 39.882812 13.179688 39.929688 13.214844 39.9375 13.261719 L 40.011719 13.632812 C 40.019531 13.679688 39.988281 13.726562 39.941406 13.738281 "/>
<path style=" stroke:none;fill-rule:nonzero;fill:rgb(86.27451%,96.078431%,97.647059%);fill-opacity:1;" d="M 39.5 13.824219 C 39.453125 13.835938 39.40625 13.804688 39.394531 13.753906 L 39.324219 13.382812 C 39.3125 13.335938 39.34375 13.285156 39.394531 13.277344 C 39.445312 13.265625 39.488281 13.296875 39.5 13.347656 L 39.574219 13.71875 C 39.582031 13.765625 39.550781 13.816406 39.5 13.824219 "/>
<path style=" stroke:none;fill-rule:nonzero;fill:rgb(86.27451%,96.078431%,97.647059%);fill-opacity:1;" d="M 40.066406 13.328125 L 39.230469 13.492188 C 39.183594 13.503906 39.136719 13.472656 39.125 13.421875 C 39.117188 13.371094 39.148438 13.328125 39.199219 13.316406 L 40.027344 13.152344 C 40.078125 13.140625 40.125 13.171875 40.136719 13.222656 C 40.144531 13.269531 40.113281 13.320312 40.066406 13.328125 "/>
<path style=" stroke:none;fill-rule:nonzero;fill:rgb(86.27451%,96.078431%,97.647059%);fill-opacity:1;" d="M 40.585938 13.828125 C 40.5625 13.832031 40.535156 13.828125 40.511719 13.8125 L 40.363281 13.699219 C 40.324219 13.667969 40.3125 13.613281 40.34375 13.574219 C 40.371094 13.53125 40.429688 13.523438 40.46875 13.554688 L 40.621094 13.664062 C 40.660156 13.695312 40.667969 13.75 40.636719 13.789062 C 40.625 13.8125 40.605469 13.824219 40.585938 13.828125 "/>
<path style=" stroke:none;fill-rule:nonzero;fill:rgb(86.27451%,96.078431%,97.647059%);fill-opacity:1;" d="M 39.878906 14.574219 C 39.851562 14.578125 39.828125 14.574219 39.804688 14.558594 C 39.765625 14.527344 39.757812 14.46875 39.789062 14.429688 L 39.972656 14.199219 C 40 14.160156 40.058594 14.152344 40.097656 14.183594 C 40.136719 14.214844 40.144531 14.269531 40.113281 14.308594 L 39.933594 14.542969 C 39.917969 14.558594 39.898438 14.570312 39.878906 14.574219 "/>
<path style=" stroke:none;fill-rule:nonzero;fill:rgb(86.27451%,96.078431%,97.647059%);fill-opacity:1;" d="M 4.851562 8.289062 L 4.820312 8.113281 L 5.085938 8.070312 L 5.113281 8.246094 L 4.851562 8.289062 "/>
<path style=" stroke:none;fill-rule:nonzero;fill:rgb(86.27451%,96.078431%,97.647059%);fill-opacity:1;" d="M 5.113281 8 L 5.074219 7.742188 L 5.25 7.710938 L 5.292969 7.972656 L 5.113281 8 "/>
<path style=" stroke:none;fill-rule:nonzero;fill:rgb(86.27451%,96.078431%,97.647059%);fill-opacity:1;" d="M 5.40625 8.199219 L 5.375 8.019531 L 5.625 7.980469 L 5.65625 8.15625 L 5.40625 8.199219 "/>
<path style=" stroke:none;fill-rule:nonzero;fill:rgb(86.27451%,96.078431%,97.647059%);fill-opacity:1;" d="M 5.207031 8.570312 L 5.164062 8.292969 L 5.339844 8.265625 L 5.386719 8.539062 L 5.207031 8.570312 "/>
<path style=" stroke:none;fill-rule:nonzero;fill:rgb(86.27451%,96.078431%,97.647059%);fill-opacity:1;" d="M 32.726562 6.890625 C 32.683594 6.890625 32.644531 6.902344 32.609375 6.921875 C 32.558594 6.953125 32.523438 7.003906 32.511719 7.058594 C 32.484375 7.179688 32.554688 7.296875 32.675781 7.328125 C 32.792969 7.355469 32.914062 7.28125 32.9375 7.160156 C 32.96875 7.042969 32.894531 6.921875 32.773438 6.894531 C 32.757812 6.890625 32.742188 6.890625 32.726562 6.890625 Z M 32.726562 7.511719 C 32.695312 7.511719 32.664062 7.507812 32.632812 7.5 C 32.417969 7.453125 32.285156 7.234375 32.332031 7.019531 C 32.359375 6.914062 32.421875 6.828125 32.511719 6.769531 C 32.605469 6.714844 32.710938 6.695312 32.816406 6.722656 C 33.03125 6.769531 33.164062 6.988281 33.117188 7.199219 C 33.070312 7.386719 32.90625 7.511719 32.726562 7.511719 "/>
</g>
</svg>
