<svg width="51" height="52" viewBox="0 0 51 52" fill="none" xmlns="http://www.w3.org/2000/svg">
<path d="M39.9862 0H5.19491C3.27924 0 1.72632 1.55292 1.72632 3.46869V9.75475C1.72632 11.6704 3.27934 13.2234 5.19501 13.2234H8.54893L9.12227 13.7936H13.1855L13.8711 13.2234H39.9862C41.9019 13.2234 43.4548 11.6704 43.4548 9.75475V3.46869C43.4548 1.55292 41.9019 0 39.9862 0V0Z" fill="#95D6A4"/>
<path d="M7.96354 13.2234C8.41145 13.2234 8.75027 13.6287 8.6709 14.0695L7.88856 18.4134C7.81946 18.7969 8.28053 19.0456 8.56311 18.7774L14.2059 13.4208C14.3394 13.2941 14.5166 13.2234 14.7008 13.2234H7.96354Z" fill="#78C2A4"/>
<path d="M45.8049 0H39.313C41.2286 0 42.7817 1.55292 42.7817 3.46869V9.75475C42.7817 11.6704 41.2287 13.2234 39.3131 13.2234H36.2991C36.4832 13.2234 36.6603 13.2941 36.7939 13.4209L42.4368 18.7774C42.7193 19.0456 43.1803 18.7969 43.1113 18.4135L42.329 14.0696C42.2496 13.6288 42.5884 13.2234 43.0363 13.2234H45.8049C47.7206 13.2234 49.2736 11.6704 49.2736 9.75475V3.46869C49.2735 1.55292 47.7206 0 45.8049 0V0Z" fill="#78C2A4"/>
<path d="M5.73325 49.7046C5.27288 47.1428 7.16482 44.7582 9.76421 44.6242C12.0642 44.5055 13.8671 42.6041 13.8634 40.3011L13.8432 27.9552C13.8432 27.4339 13.8021 26.825 13.7089 26.2113C13.5702 25.3017 13.3871 24.7415 13.2508 24.3071H8.3824C4.8504 24.3071 1.98706 27.1705 1.98706 30.7025V50.0065H5.78749L5.73325 49.7046Z" fill="#D5985C"/>
<path d="M21.101 36.4269L19.7771 33.6479C19.6985 33.4829 19.6566 33.303 19.6544 33.1203L19.6292 31.0873C19.6292 28.5323 18.7441 26.1701 17.2629 24.3071H12.3333C12.3569 24.4871 12.3983 24.6664 12.4593 24.8424C12.8471 25.961 13.0581 27.1608 13.0581 28.4067L13.0771 40.0762C13.0807 42.2531 11.3765 44.0503 9.20251 44.1625C6.74551 44.2893 4.95717 46.5432 5.39231 48.9647L5.57957 50.0065H11.6061L11.1434 47.082C10.9868 46.092 11.7524 45.1963 12.7548 45.197L16.5307 45.1996C17.713 45.2014 18.6725 44.2435 18.6726 43.0612L18.6729 39.5216C18.673 38.818 19.2376 38.2229 19.9411 38.2334C20.8789 38.2475 21.5036 37.2722 21.101 36.4269Z" fill="#C38959"/>
<path d="M6.91278 39.3006V37.7372C6.91278 36.9042 7.29837 36.118 7.95697 35.608L10.6417 33.5292C11.6436 32.7534 12.2301 31.5575 12.2301 30.2903C12.2301 28.9788 12.8473 27.8122 13.8061 27.0624C13.7841 26.7859 13.7523 26.5003 13.7088 26.2133C13.4874 24.762 13.1529 24.1998 13.0763 23.62H13.0769C13.0345 23.2971 13.0481 22.9719 13.1135 22.6564L12.7936 22.3894H8.89286C3.25234 22.3894 -0.962093 27.5748 0.19098 33.0963L1.9869 41.6962H4.51719C5.84028 41.6962 6.91278 40.6237 6.91278 39.3006Z" fill="#6B61B1"/>
<path d="M19.7355 22.3877H12.7935C12.3076 23.1107 12.1712 24.0119 12.4592 24.8426C12.7878 25.7906 12.9879 26.7974 13.0417 27.8408C13.7886 26.8402 14.9817 26.1924 16.3262 26.1924H16.8423C18.6919 26.1924 20.1912 24.693 20.1912 22.8436C20.1914 22.5918 19.9873 22.3877 19.7355 22.3877Z" fill="#5E54AC"/>
<path d="M5.81492 47.7533L1.43466 47.3317C0.746749 47.2655 0.151367 47.8063 0.151367 48.4974V49.8812C0.151367 50.5279 0.675654 51.0523 1.32249 51.0523H6.91076L7.23482 50.562V49.6297C7.23482 48.7388 6.63635 47.9862 5.81492 47.7533Z" fill="#E28086"/>
<path d="M12.3439 48.3815L5.24292 47.698C6.18959 47.8369 6.91091 48.6508 6.91091 49.6294V51.052H12.2317C12.8785 51.052 13.4029 50.5277 13.4029 49.8809V49.5472C13.4028 48.9439 12.9444 48.4394 12.3439 48.3815Z" fill="#DD636E"/>
<path d="M39.3938 50.0067H43.2191V43.4615C43.2191 42.2866 43.3401 41.1148 43.5803 39.9647L44.3517 36.271L45.0151 33.0946C45.7132 29.7496 44.4417 26.3802 41.8336 24.3074H33.7371C32.2558 26.1704 31.3708 28.5326 31.3708 31.0876L31.3455 33.1206C31.3433 33.3033 31.3014 33.4833 31.2229 33.6482L29.899 36.4273C29.4964 37.2726 30.1211 38.2478 31.059 38.2337C31.7625 38.223 32.3271 38.8182 32.3271 39.5219L32.3274 43.0614C32.3275 44.2437 33.2869 45.2017 34.4693 45.1999L38.2452 45.1973C39.2476 45.1966 40.0131 46.0922 39.8566 47.0822L39.3938 50.0067Z" fill="#FFDDCE"/>
<path d="M42.6179 24.3074H41.1357C43.6561 26.3105 45.0394 29.6366 44.3173 33.0946L42.8825 39.9647C42.6423 41.1148 42.5212 42.2866 42.5212 43.4615V50.0067H49.0132V30.7027C49.0132 27.1707 46.15 24.3074 42.6179 24.3074Z" fill="#FFCBBE"/>
<path d="M44.0816 37.5653L44.3518 36.2713L45.0152 33.0948C45.7133 29.7498 44.4417 26.3804 41.8337 24.3076C40.3298 23.1123 38.4212 22.3879 36.3132 22.3879H31.2645C31.0127 22.3879 30.8086 22.5921 30.8086 22.8438C30.8086 24.6934 32.308 26.1927 34.1574 26.1927H34.6736C36.9359 26.1927 38.7699 28.0266 38.7699 30.2889C38.7699 31.5562 39.3564 32.7519 40.3583 33.5278L43.0431 35.6066C43.6567 36.0815 44.0328 36.7963 44.0816 37.5653Z" fill="#E49542"/>
<path d="M42.1072 22.3877H35.6152C41.2558 22.3877 45.4702 27.5731 44.3171 33.0946L43.6537 36.271C43.933 36.702 44.0873 37.2093 44.0873 37.7355V39.299C44.0873 40.622 45.1598 41.6945 46.4828 41.6945H49.0131L50.809 33.0946C51.9622 27.5731 47.7477 22.3877 42.1072 22.3877Z" fill="#E27D47"/>
<path d="M42.7794 47.9846L38.6563 48.3815C38.0557 48.4393 37.5974 48.9438 37.5974 49.5472V49.8809C37.5974 50.5277 38.1217 51.0521 38.7684 51.0521H44.3567L44.4398 50.7872V49.7496C44.4397 48.7997 43.6957 48.0409 42.7794 47.9846Z" fill="#B1E4F9"/>
<path d="M49.5654 47.3317L42.4858 48.0132C43.4943 47.9459 44.3567 48.7442 44.3567 49.7622V51.0523H49.6776C50.3243 51.0523 50.8487 50.528 50.8487 49.8812V48.4973C50.8487 47.8063 50.2533 47.2655 49.5654 47.3317Z" fill="#90D8F9"/>
<path d="M43.3897 5.23533H7.6112C7.18573 5.23533 6.84082 4.89043 6.84082 4.46496C6.84082 4.03948 7.18573 3.69458 7.6112 3.69458H43.3898C43.8154 3.69458 44.1602 4.03948 44.1602 4.46496C44.1602 4.89043 43.8153 5.23533 43.3897 5.23533Z" fill="#F0F7FF"/>
<path d="M25.5 9.11082H7.61071C7.18524 9.11082 6.84033 8.76592 6.84033 8.34045C6.84033 7.91487 7.18524 7.57007 7.61071 7.57007H25.5C25.9255 7.57007 26.2704 7.91497 26.2704 8.34045C26.2704 8.76592 25.9255 9.11082 25.5 9.11082Z" fill="#F0F7FF"/>
</svg>
