<svg width="16" height="16" viewBox="0 0 16 16" fill="none" xmlns="http://www.w3.org/2000/svg">
<g id="Group 2">
<path id="Vector" fill-rule="evenodd" clip-rule="evenodd" d="M8 0C5.83 0 5.55995 0.00980469 4.69995 0.0498047C1.78995 0.179805 0.180049 1.7902 0.0500488 4.7002C0.0100488 5.5602 0 5.83 0 8C0 10.17 0.0100488 10.4498 0.0500488 11.2998C0.180049 14.1998 1.78995 15.8202 4.69995 15.9502C5.55995 15.9902 5.83 16 8 16C10.17 16 10.45 15.9902 11.3 15.9502C14.2 15.8202 15.82 14.2098 15.95 11.2998C15.99 10.4498 16 10.17 16 8C16 5.83 15.99 5.5602 15.95 4.7002C15.82 1.8002 14.21 0.179805 11.3 0.0498047C10.45 0.00980469 10.17 0 8 0ZM8 1.43994C10.14 1.43994 10.39 1.45023 11.23 1.49023C13.4 1.59023 14.41 2.62002 14.51 4.77002C14.55 5.61002 14.5601 5.86 14.5601 8C14.5601 10.14 14.55 10.39 14.51 11.23C14.41 13.38 13.4 14.4098 11.23 14.5098C10.39 14.5498 10.14 14.5601 8 14.5601C5.86 14.5601 5.61002 14.5498 4.77002 14.5098C2.59002 14.4098 1.58999 13.38 1.48999 11.23C1.44999 10.39 1.43994 10.14 1.43994 8C1.43994 5.86 1.44999 5.61002 1.48999 4.77002C1.58999 2.61002 2.60002 1.59023 4.77002 1.49023C5.61002 1.45023 5.86 1.43994 8 1.43994ZM3.89001 8C3.89001 5.73 5.73 3.89014 8 3.89014C10.27 3.89014 12.11 5.73 12.11 8C12.11 10.27 10.27 12.1099 8 12.1099C5.73 12.1099 3.89001 10.27 3.89001 8ZM8 10.6699C6.53 10.6699 5.32996 9.47 5.32996 8C5.32996 6.53 6.53 5.33008 8 5.33008C9.47 5.33008 10.67 6.53 10.67 8C10.67 9.47 9.47 10.6699 8 10.6699ZM11.3101 3.72998C11.3101 3.19998 11.74 2.77002 12.27 2.77002C12.8 2.77002 13.23 3.19998 13.23 3.72998C13.23 4.25998 12.8 4.68994 12.27 4.68994C11.74 4.68994 11.3101 4.25998 11.3101 3.72998Z" fill="#222222"/>
</g>
</svg>
