<svg width="69" height="41" viewBox="0 0 69 41" fill="none" xmlns="http://www.w3.org/2000/svg">
<rect width="69" height="41" fill="#E5E5E5"/>
<g id="web" clip-path="url(#clip0_6_9)">
<rect width="1440" height="2400" transform="translate(-835 -1020)" fill="#FAF4F2"/>
<circle id="Ellipse 46" cx="35" cy="20" r="49" fill="#222222" fill-opacity="0.1"/>
<g id="Group 243">
<path id="Vector" d="M50.7065 26.9858L30.5129 7.99659C30.1581 7.66295 29.7295 7.41778 29.262 7.28102C28.7945 7.14426 28.3013 7.11977 27.8226 7.20955L21.402 8.41225L17.1744 6.91821L9.52808 21.3634C9.52808 21.3634 15.7764 29.3416 17.9614 31.2945C20.1464 33.2475 32.0587 38.0593 35.9651 39.0748C39.8715 40.0902 40.1271 36.4778 40.1271 36.4778C43.3286 37.0242 44.0548 33.8728 44.0548 33.8728C48.8987 34.2634 48.0391 30.9824 48.0391 30.9824C49.7263 31.3794 50.6286 30.8799 51.1088 30.1719C51.4294 29.679 51.5649 29.0885 51.4913 28.5052C51.4176 27.9218 51.1396 27.3835 50.7065 26.9858Z" fill="#DDB087"/>
<g id="Group">
<path id="Vector_2" d="M50.4594 8.56046L48.0375 9.26319L37.9393 8.10905C37.385 8.04551 36.824 8.0749 36.2794 8.19602L29.8934 9.61536C28.6337 9.89504 27.53 10.649 26.8114 11.7209C25.9758 12.9663 24.8809 14.6609 24.2235 15.925C24.1542 16.0572 24.1161 16.2035 24.1122 16.3528C24.1082 16.502 24.1386 16.6501 24.2009 16.7858C24.2632 16.9214 24.3558 17.041 24.4716 17.1352C24.5873 17.2295 24.7232 17.2959 24.8686 17.3294C26.5761 17.7195 29.8182 18.0076 31.7113 15.2788L36.0083 14.8103L50.8761 27.1613L57.8832 22.9353L59.7582 20.826L50.4594 8.56046Z" fill="#F0C191"/>
<path id="Vector_3" d="M33.6963 34.6091C33.2612 34.3688 32.7485 34.3112 32.2709 34.4488C31.7933 34.5865 31.3899 34.9083 31.1495 35.3433L29.9223 37.5694C29.8032 37.7849 29.7276 38.0217 29.7 38.2664C29.6725 38.511 29.6933 38.7587 29.7614 38.9953C29.8296 39.2319 29.9436 39.4528 30.0971 39.6453C30.2506 39.8378 30.4405 39.9982 30.656 40.1173C30.8714 40.2364 31.1083 40.3119 31.3529 40.3395C31.5976 40.3671 31.8453 40.3463 32.0818 40.2781C32.3184 40.21 32.5393 40.0959 32.7318 39.9425C32.9243 39.789 33.0847 39.5991 33.2038 39.3836L34.4311 37.157C34.5503 36.9415 34.6258 36.7046 34.6534 36.4598C34.681 36.2151 34.6601 35.9674 34.5918 35.7307C34.5236 35.4941 34.4094 35.2732 34.2557 35.0808C34.1021 34.8883 33.912 34.728 33.6963 34.6091Z" fill="#F0C191"/>
<path id="Vector_4" d="M30.529 31.8034C30.2698 31.6603 29.985 31.5696 29.6908 31.5366C29.3966 31.5035 29.0987 31.5287 28.8143 31.6108C28.5298 31.6928 28.2643 31.8301 28.0329 32.0148C27.8015 32.1994 27.6088 32.4279 27.4656 32.687L25.9865 35.3646C25.6974 35.8882 25.6281 36.5052 25.794 37.0799C25.9598 37.6545 26.3471 38.1398 26.8707 38.4289C27.3943 38.7181 28.0113 38.7873 28.586 38.6215C29.1607 38.4557 29.646 38.0684 29.9351 37.5448L31.4104 34.8673C31.6997 34.344 31.7693 33.7274 31.604 33.1528C31.4387 32.5783 31.052 32.0929 30.529 31.8034Z" fill="#F0C191"/>
<path id="Vector_5" d="M26.5819 29.6231C26.0586 29.334 25.4419 29.2647 24.8674 29.4303C24.2929 29.5959 23.8078 29.9829 23.5186 30.5062L22.0395 33.1843C21.7504 33.7079 21.6811 34.3249 21.8469 34.8996C22.0127 35.4743 22.4001 35.9595 22.9237 36.2486C23.4473 36.5378 24.0643 36.607 24.639 36.4412C25.2137 36.2754 25.6989 35.8881 25.9881 35.3645L27.4672 32.687C27.6102 32.4277 27.7008 32.1427 27.7338 31.8484C27.7667 31.5541 27.7413 31.2562 27.6591 30.9717C27.5769 30.6872 27.4395 30.4216 27.2547 30.1903C27.0698 29.9589 26.8412 29.7661 26.5819 29.6231Z" fill="#F0C191"/>
<path id="Vector_6" d="M22.6351 27.4429C22.1118 27.1538 21.495 27.0845 20.9205 27.2501C20.3461 27.4157 19.8609 27.8027 19.5718 28.326L18.0921 31.0036C17.9489 31.2628 17.8582 31.5477 17.8251 31.8421C17.7921 32.1364 17.8173 32.4344 17.8994 32.7189C17.9814 33.0035 18.1188 33.2691 18.3035 33.5007C18.4882 33.7322 18.7168 33.925 18.976 34.0682C19.2353 34.2114 19.5202 34.3021 19.8145 34.3352C20.1089 34.3683 20.4068 34.343 20.6914 34.261C20.976 34.1789 21.2416 34.0416 21.4731 33.8568C21.7046 33.6721 21.8975 33.4436 22.0407 33.1843L23.5198 30.5063C23.6628 30.247 23.7535 29.9622 23.7864 29.6679C23.8194 29.3737 23.7941 29.0758 23.7119 28.7913C23.6298 28.5069 23.4924 28.2414 23.3076 28.01C23.1229 27.7787 22.8943 27.586 22.6351 27.4429Z" fill="#F0C191"/>
</g>
<path id="Vector_7" d="M57.2088 1.62592L49.0853 6.7692C48.6714 7.03123 48.5484 7.57915 48.8104 7.99302L58.9034 23.9343C59.1654 24.3482 59.7134 24.4713 60.1272 24.2092L68.2507 19.066C68.6646 18.8039 68.7877 18.256 68.5256 17.8421L58.4326 1.90083C58.1706 1.48697 57.6227 1.36389 57.2088 1.62592Z" fill="#F26176"/>
<path id="Vector_8" d="M68.5176 17.8444L65.7488 13.4722C65.7344 13.486 65.7189 13.4988 65.704 13.5127L65.8219 13.6995C65.9473 13.8983 65.9887 14.1387 65.9372 14.368C65.8857 14.5973 65.7455 14.7969 65.5471 14.923L57.4254 20.0657C57.2738 20.1608 57.097 20.2078 56.9182 20.2007C56.7394 20.1936 56.5669 20.1326 56.4233 20.0257L58.897 23.9363C59.0231 24.1348 59.2226 24.2751 59.452 24.3266C59.6814 24.3782 59.9218 24.3366 60.1206 24.2111L68.2428 19.0689C68.4411 18.9425 68.5813 18.7428 68.6328 18.5133C68.6843 18.2839 68.6429 18.0434 68.5176 17.8444Z" fill="#E95A6A"/>
<path id="Vector_9" d="M11.7724 0.712164L0.528544 15.8611C0.236637 16.2544 0.318826 16.8099 0.712117 17.1018L8.43185 22.8315C8.82514 23.1234 9.3806 23.0412 9.67251 22.6479L20.9163 7.49897C21.2082 7.10568 21.126 6.55022 20.7328 6.25831L13.013 0.528595C12.6197 0.236687 12.0643 0.318873 11.7724 0.712164Z" fill="#6BB3D9"/>
<path id="Vector_10" d="M12.6174 18.584L12.4653 18.7889C12.3959 18.8825 12.3086 18.9616 12.2086 19.0214C12.1085 19.0813 11.9976 19.1208 11.8823 19.1377C11.7669 19.1546 11.6494 19.1485 11.5363 19.1199C11.4233 19.0913 11.3171 19.0406 11.2237 18.9708L3.50376 13.2428C3.3593 13.1363 3.25068 12.9883 3.19235 12.8185C3.13402 12.6488 3.12874 12.4653 3.1772 12.2925L0.530616 15.8584C0.390588 16.0473 0.331065 16.284 0.365062 16.5167C0.399059 16.7494 0.52381 16.9591 0.712035 17.1001L8.43516 22.8281C8.52886 22.8976 8.63535 22.9478 8.7485 22.976C8.86166 23.0043 8.97928 23.0099 9.09461 22.9926C9.20995 22.9753 9.32073 22.9354 9.42064 22.8752C9.52054 22.8151 9.60759 22.7358 9.67681 22.6419L12.6542 18.6277C12.6419 18.6133 12.6281 18.5989 12.6174 18.584Z" fill="#4FA4D1"/>
</g>
</g>
<defs>
<clipPath id="clip0_6_9">
<rect width="1440" height="2400" fill="white" transform="translate(-835 -1020)"/>
</clipPath>
</defs>
</svg>
