<svg width="45" height="49" viewBox="0 0 45 49" fill="none" xmlns="http://www.w3.org/2000/svg">
<path d="M22.0083 32.4608C22.0083 32.1574 22.2543 31.9117 22.5577 31.9117H23.7218C23.2921 31.9117 22.9435 31.5633 22.9435 31.1334V24.2076H21.9088C21.9211 24.3312 21.8818 24.4589 21.7873 24.5536L20.7734 25.5675C20.6059 25.735 20.3341 25.735 20.1666 25.5675L18.261 23.6619L20.3465 34.145H23.6925C22.7623 34.145 22.0083 33.391 22.0083 32.4608Z" fill="#DAE6F1"/>
<path d="M16.8934 29.3164C16.8622 29.237 16.8717 29.1472 16.9192 29.0762L17.4689 28.2514C17.547 28.1341 17.5181 27.976 17.4035 27.8943L16.3835 27.1658C16.3123 27.1149 16.2711 27.0316 16.2744 26.9441L16.3967 23.5203C16.3086 23.5448 16.2208 23.5702 16.1321 23.5924L12.8979 24.4065C11.9555 24.6438 11.2767 25.4663 11.2228 26.4365L10.7756 34.1452H18.7894L16.8934 29.3164Z" fill="#3A70BF"/>
<path d="M18.2608 23.6618L17.9008 23.3018C17.8265 23.2275 17.7871 23.1327 17.7786 23.0359C17.3296 23.2281 16.8676 23.3888 16.3969 23.52L16.2746 26.9438C16.2715 27.0313 16.3125 27.1146 16.3837 27.1655L17.4037 27.894C17.5183 27.9759 17.5472 28.134 17.4691 28.2511L16.9194 29.0759C16.872 29.1469 16.8624 29.2367 16.8936 29.3161L18.7897 34.1449H20.3464L18.2608 23.6618Z" fill="#5290DB"/>
<path d="M21.9087 24.2075C21.9209 24.3312 21.8817 24.4588 21.7872 24.5536L20.9375 25.4032L20.9589 25.457L21.7246 26.6055H22.9432V24.2075H21.9087Z" fill="#FC657E"/>
<path d="M22.0082 32.4608C22.0082 32.1574 22.2542 31.9116 22.5576 31.9116H23.7217C23.292 31.9116 22.9434 31.5633 22.9434 31.1334V26.6055H21.7246L20.3464 34.145H23.6924C22.7622 34.145 22.0082 33.391 22.0082 32.4608Z" fill="#FC657E"/>
<path d="M22.8133 26.1269H21.9805L21.3569 25.1915C21.2105 24.9718 20.913 24.9124 20.6933 25.0588C20.4735 25.2055 20.414 25.5025 20.5606 25.7224L21.3263 26.8709C21.4151 27.0039 21.5644 27.0839 21.7244 27.0839H22.8131C23.0774 27.0839 23.2916 26.8697 23.2916 26.6054C23.2916 26.3411 23.0776 26.1269 22.8133 26.1269Z" fill="#222222"/>
<path d="M21.805 26.1662C21.5465 26.1183 21.2959 26.2908 21.2484 26.5509L19.9007 33.9235C19.8531 34.1832 20.0254 34.4326 20.2855 34.4801C20.3144 34.4855 20.3435 34.4879 20.372 34.4879C20.5986 34.4879 20.7998 34.3262 20.8421 34.0954L22.1898 26.7228C22.2374 26.463 22.065 26.2136 21.805 26.1662Z" fill="#222222"/>
<path d="M43.1994 34.145H1.78104C1.06173 34.145 0.478516 34.7282 0.478516 35.4475C0.478516 36.1668 1.06173 36.7501 1.78104 36.7501H43.1996C43.9189 36.7501 44.5021 36.1668 44.5021 35.4475C44.502 34.7282 43.9187 34.145 43.1994 34.145Z" fill="#AD7753"/>
<path d="M1.91919 36.75C1.97336 37.8644 2.899 38.7598 4.026 38.7598H40.9542C42.0814 38.7598 43.0068 37.8644 43.061 36.75H1.91919Z" fill="#8E6244"/>
<path d="M40.9542 38.7595H4.02623C3.94297 38.7595 3.86124 38.7532 3.78027 38.7437V47.8399C3.78027 48.2162 4.08538 48.5213 4.46168 48.5213H40.5188C40.8951 48.5213 41.2002 48.2162 41.2002 47.8399V38.7437C41.1194 38.7532 41.0377 38.7595 40.9542 38.7595Z" fill="#8E6244"/>
<path d="M21.7871 23.9469L19.5214 21.6813C19.3539 21.5138 19.0821 21.5138 18.9146 21.6813L17.9008 22.6952C17.7333 22.8626 17.7333 23.1344 17.9008 23.3019L20.1664 25.5676C20.3339 25.7351 20.6057 25.7351 20.7732 25.5676L21.7871 24.5537C21.9546 24.3862 21.9546 24.1144 21.7871 23.9469Z" fill="#EDF4FC"/>
<path d="M22.4902 20.5235C21.5565 20.5235 20.6747 20.2917 19.8976 19.885V20.8009C19.8976 21.155 19.8009 21.4942 19.6277 21.7876L21.7869 23.9468C21.8599 24.0198 21.8989 24.1124 21.9085 24.2075H22.9432V20.5031C22.7935 20.5151 22.6429 20.5235 22.4902 20.5235Z" fill="#F9D0B4"/>
<path d="M28.1169 9.79496C28.1136 9.63533 27.9859 9.50383 27.8263 9.49905C25.4885 9.43052 24.2566 8.50393 23.7832 8.03996C23.654 7.91325 23.4454 7.92664 23.3328 8.06828C21.2773 10.6532 18.2453 10.2884 17.2256 10.075C17.0404 10.0361 16.8625 10.1759 16.8625 10.3652V14.8959C16.8625 17.9912 19.3949 20.5235 22.4901 20.5235C22.6426 20.5235 22.7935 20.5154 22.9431 20.5036V20.3462C22.9431 19.9163 23.2915 19.568 23.7214 19.568H25.6169C27.1221 18.5552 28.1176 16.8364 28.1176 14.8959V9.88301C28.1178 9.85353 28.1176 9.82425 28.1169 9.79496Z" fill="#F9D0B4"/>
<path d="M26.8938 3.82539C26.2941 3.82539 25.7335 3.99479 25.2517 4.28381C24.689 3.34458 23.6636 2.71045 22.4949 2.71045H20.8442C17.6494 2.71045 15.0354 5.32448 15.0354 8.51925V11.122C15.4374 10.8002 15.9465 10.6069 16.5014 10.6069C16.6243 10.6069 16.7447 10.6173 16.8626 10.6354V10.365C16.8628 10.1757 17.0404 10.0359 17.2257 10.0748C18.2451 10.2882 21.2773 10.653 23.3329 8.0681C23.4454 7.92646 23.654 7.91306 23.7832 8.03977C24.2566 8.50374 25.4883 9.43034 27.8263 9.49886C27.9859 9.50365 28.1136 9.63514 28.1169 9.79478C28.1174 9.82406 28.1178 9.85335 28.1178 9.88282V10.6356C28.2355 10.6174 28.3561 10.6071 28.479 10.6071C29.1124 10.6071 29.686 10.8588 30.1086 11.2663V7.03987C30.1084 5.27185 28.6618 3.82539 26.8938 3.82539Z" fill="#754E34"/>
<path d="M28.4789 10.6069C28.356 10.6069 28.2356 10.6173 28.1177 10.6356V14.896C28.1177 15.0229 28.1119 15.1484 28.1035 15.2734C28.226 15.2931 28.3508 15.3061 28.4789 15.3061C29.7764 15.3061 30.8284 14.2542 30.8284 12.9566C30.8284 11.6589 29.7764 10.6069 28.4789 10.6069Z" fill="#F9D0B4"/>
<path d="M16.8628 14.896V10.6356C16.7451 10.6175 16.6245 10.6069 16.5016 10.6069C15.2041 10.6069 14.1521 11.6589 14.1521 12.9564C14.1521 14.254 15.2041 15.306 16.5016 15.306C16.6297 15.306 16.7545 15.2929 16.877 15.2732C16.8685 15.1484 16.8628 15.0229 16.8628 14.896Z" fill="#F9D0B4"/>
<path d="M24.4804 15.8643C24.2781 15.6945 23.9759 15.7213 23.8065 15.9238C23.5534 16.2257 23.1205 16.4062 22.6485 16.4062C22.1764 16.4062 21.7435 16.2258 21.4904 15.9236C21.3201 15.7207 21.0188 15.6947 20.8163 15.8643C20.6138 16.0341 20.5874 16.3359 20.757 16.5384C21.1899 17.0546 21.897 17.363 22.6485 17.363C23.4003 17.363 24.1074 17.0548 24.5399 16.5382C24.7097 16.3357 24.6831 16.0341 24.4804 15.8643Z" fill="#222222"/>
<path d="M24.9838 12.5361C24.5871 12.5361 24.2654 12.8578 24.2654 13.2546C24.2654 13.6514 24.5871 13.9731 24.9838 13.9731C25.3806 13.9731 25.7023 13.6514 25.7023 13.2546C25.7023 12.8578 25.3806 12.5361 24.9838 12.5361Z" fill="#222222"/>
<path d="M20.1611 12.5361C19.7643 12.5361 19.4426 12.8578 19.4426 13.2546C19.4426 13.6514 19.7643 13.9731 20.1611 13.9731C20.5579 13.9731 20.8796 13.6514 20.8796 13.2546C20.8796 12.8578 20.5579 12.5361 20.1611 12.5361Z" fill="#222222"/>
<path d="M14.7366 27.822C14.4722 27.822 14.2581 28.0362 14.2581 28.3005V33.7786C14.2581 34.0429 14.4722 34.2571 14.7366 34.2571C15.0009 34.2571 15.2151 34.0429 15.2151 33.7786V28.3005C15.2151 28.0364 15.0009 27.822 14.7366 27.822Z" fill="#222222"/>
<path d="M22.1251 23.6084L19.8597 21.3428C19.6882 21.1713 19.4604 21.0769 19.2179 21.0769C18.9754 21.0769 18.7476 21.1713 18.5761 21.3428L17.5622 22.3566C17.2081 22.7106 17.2081 23.2863 17.5622 23.6402L19.8279 25.9059C19.9994 26.0774 20.2272 26.1718 20.4697 26.1718C20.7122 26.1718 20.94 26.0774 21.1115 25.9059L22.1253 24.892C22.2968 24.7205 22.3914 24.4925 22.3914 24.2502C22.3912 24.0077 22.2966 23.7798 22.1251 23.6084ZM20.4697 25.1942L18.2739 22.9982L19.2179 22.0542L21.4137 24.2502L20.4697 25.1942Z" fill="#222222"/>
<path d="M22.7493 23.729H21.9851C21.7206 23.729 21.5063 23.9433 21.5063 24.2077C21.5063 24.4722 21.7206 24.6864 21.9851 24.6864H22.7493C23.0137 24.6864 23.228 24.4722 23.228 24.2077C23.228 23.9433 23.0136 23.729 22.7493 23.729Z" fill="#222222"/>
<path d="M19.8975 19.5486C19.6332 19.5486 19.419 19.7628 19.419 20.0271V20.8006C19.419 21.0345 19.3617 21.2678 19.2534 21.4759C19.1313 21.7103 19.2226 21.9992 19.4569 22.1213C19.5275 22.1578 19.6031 22.1754 19.6774 22.1754C19.85 22.1754 20.0167 22.0817 20.1023 21.9176C20.2814 21.5737 20.376 21.1874 20.376 20.8004V20.0269C20.376 19.7628 20.1618 19.5486 19.8975 19.5486Z" fill="#222222"/>
<path d="M18.1413 22.8844C18.0391 22.6405 17.7585 22.5251 17.5153 22.6279C17.0281 22.8318 16.5236 23.0002 16.0156 23.1281L12.7814 23.9421C11.6295 24.2321 10.8113 25.2238 10.7452 26.4088L10.3057 33.9869C10.2904 34.2507 10.492 34.4771 10.7559 34.4924C10.7653 34.493 10.7747 34.4932 10.7839 34.4932C11.0354 34.4932 11.2465 34.2968 11.2612 34.0424L11.7007 26.4631C11.7434 25.6977 12.2715 25.0576 13.0149 24.8706L16.2491 24.0564C16.8034 23.9168 17.3537 23.7333 17.8849 23.5107C18.1287 23.4085 18.2436 23.1281 18.1413 22.8844Z" fill="#222222"/>
<path d="M28.5953 9.78533C28.5871 9.36864 28.2555 9.03272 27.8406 9.02066C25.6327 8.95597 24.5021 8.07435 24.1185 7.69804C23.9602 7.54301 23.7422 7.46032 23.5228 7.47601C23.3021 7.4896 23.0964 7.59717 22.9588 7.77059C21.1029 10.104 18.4 9.83165 17.3239 9.60656C17.0935 9.55832 16.8548 9.61574 16.6711 9.76504C16.4892 9.91261 16.3847 10.1314 16.3845 10.3689V14.8959C16.3845 18.2627 19.1237 21.0017 22.4906 21.0017C22.5903 21.0017 22.6894 20.9992 22.788 20.9947C23.052 20.9822 23.2558 20.7583 23.2434 20.4941C23.2309 20.2302 23.0028 20.0265 22.7428 20.0388C22.6592 20.0428 22.5752 20.0447 22.4908 20.0447C19.6516 20.0447 17.3417 17.735 17.3417 14.8959V10.5841C18.5019 10.7872 21.4868 11.0061 23.5887 8.51229C24.2113 9.06832 25.4725 9.8684 27.64 9.97061V14.8959C27.64 16.567 26.816 18.1435 25.4361 19.1126C25.2198 19.2645 25.1676 19.5629 25.3196 19.779C25.4715 19.9955 25.7701 20.0476 25.986 19.8956C27.6208 18.7475 28.597 16.8783 28.597 14.8957V9.88276L28.5953 9.78533Z" fill="#222222"/>
<path d="M26.8938 3.34712C26.3823 3.34712 25.8757 3.45603 25.4064 3.66505C24.7098 2.77175 23.6307 2.23218 22.4949 2.23218H20.8442C17.3774 2.23218 14.5569 5.05255 14.5569 8.51949V11.0018C14.5569 11.2662 14.7711 11.4804 15.0354 11.4804C15.2997 11.4804 15.5139 11.2662 15.5139 11.0018V8.51949C15.5139 5.58045 17.905 3.18921 20.8442 3.18921H22.4949C23.4466 3.18921 24.3456 3.70294 24.8411 4.53001C24.9064 4.63873 25.0123 4.7174 25.1353 4.74821C25.2582 4.77922 25.3888 4.75989 25.4979 4.69443C25.9235 4.43928 26.4061 4.30434 26.8938 4.30434C28.4024 4.30434 29.6299 5.53164 29.6299 7.0403V11.1559C29.6299 11.4203 29.8441 11.6344 30.1085 11.6344C30.3728 11.6344 30.587 11.4203 30.587 11.1559V7.04011C30.587 5.00393 28.9302 3.34712 26.8938 3.34712Z" fill="#222222"/>
<path d="M28.4789 10.1287C28.4002 10.1287 28.3223 10.1323 28.2452 10.1388C27.982 10.1612 27.7866 10.393 27.8092 10.6564C27.8316 10.9196 28.0632 11.1133 28.3267 11.0924C28.3769 11.0882 28.4274 11.0857 28.4789 11.0857C29.5108 11.0857 30.3499 11.925 30.3499 12.9567C30.3499 13.9884 29.5106 14.8277 28.4789 14.8277C28.4219 14.8277 28.3658 14.8242 28.3103 14.8185C28.0481 14.7898 27.8122 14.982 27.7849 15.245C27.7573 15.5078 27.9483 15.7432 28.2113 15.7704C28.304 15.7801 28.3914 15.7847 28.4789 15.7847C30.0383 15.7847 31.3069 14.5161 31.3069 12.9567C31.3069 11.3973 30.0385 10.1287 28.4789 10.1287Z" fill="#222222"/>
<path d="M16.6436 14.821C16.5969 14.825 16.5497 14.8277 16.5016 14.8277C15.4697 14.8277 14.6306 13.9884 14.6306 12.9567C14.6306 11.925 15.4699 11.0857 16.5016 11.0857C16.551 11.0857 16.6 11.088 16.6482 11.0918C16.9145 11.1121 17.1424 10.9163 17.1633 10.6529C17.1842 10.3894 16.9878 10.1589 16.7244 10.1378C16.6507 10.1321 16.5768 10.1287 16.5016 10.1287C14.9422 10.1287 13.6736 11.3973 13.6736 12.9567C13.6736 14.5161 14.9422 15.7847 16.5016 15.7847C16.5784 15.7847 16.6542 15.7809 16.729 15.7742C16.9922 15.7506 17.1867 15.5183 17.1631 15.2549C17.1392 14.9917 16.9085 14.7959 16.6436 14.821Z" fill="#222222"/>
<path d="M37.8753 19.5681H23.7216C23.2919 19.5681 22.9434 19.9165 22.9434 20.3464V31.1336C22.9434 31.5635 23.2917 31.9119 23.7216 31.9119H37.8753C38.305 31.9119 38.6536 31.5635 38.6536 31.1336V20.3464C38.6536 19.9167 38.305 19.5681 37.8753 19.5681Z" fill="#EDF4FC"/>
<path d="M39.0394 31.9116H22.5576C22.2543 31.9116 22.0083 32.1576 22.0083 32.4608C22.0083 33.391 22.7623 34.1449 23.6925 34.1449H37.9044C38.8346 34.1449 39.5886 33.391 39.5886 32.4608C39.5886 32.1576 39.3428 31.9116 39.0394 31.9116Z" fill="#DAE6F1"/>
<path d="M32.1077 25.2615H29.4893C29.2249 25.2615 29.0107 25.4757 29.0107 25.74C29.0107 26.0043 29.2249 26.2185 29.4893 26.2185H32.1077C32.372 26.2185 32.5862 26.0043 32.5862 25.74C32.5862 25.4757 32.372 25.2615 32.1077 25.2615Z" fill="#222222"/>
<path d="M37.8752 19.0894H23.7216C23.0285 19.0894 22.4648 19.653 22.4648 20.3461V31.1332C22.4648 31.8261 23.0285 32.3898 23.7216 32.3898H37.8752C38.568 32.3898 39.1317 31.8261 39.1317 31.1332V20.3461C39.1317 19.6532 38.568 19.0894 37.8752 19.0894ZM38.1747 31.1334C38.1747 31.2986 38.0403 31.433 37.8752 31.433H23.7216C23.5564 31.433 23.4219 31.2986 23.4219 31.1334V20.3463C23.4219 20.1811 23.5564 20.0466 23.7216 20.0466H37.8752C38.0403 20.0466 38.1747 20.1811 38.1747 20.3463V31.1334Z" fill="#222222"/>
<path d="M39.0394 31.4331H22.5576C21.9909 31.4331 21.5298 31.8942 21.5298 32.461C21.5298 33.6534 22.4998 34.6237 23.6925 34.6237H37.9046C39.0971 34.6237 40.0673 33.6536 40.0673 32.461C40.0671 31.8942 39.6062 31.4331 39.0394 31.4331ZM37.9044 33.6666H23.6923C23.0273 33.6666 22.4866 33.1259 22.4866 32.461C22.4866 32.4219 22.5184 32.3901 22.5574 32.3901H39.0392C39.0781 32.3901 39.1099 32.4219 39.1099 32.461C39.1101 33.1257 38.5693 33.6666 37.9044 33.6666Z" fill="#222222"/>
<path d="M9.49448 24.3844C8.63315 24.2313 7.96323 23.5613 7.79097 22.7191C7.79097 22.6809 7.7144 22.6809 7.7144 22.7191C7.54214 23.5613 6.87222 24.2313 6.01089 24.3844C5.97261 24.3844 5.97261 24.4418 6.01089 24.4609C6.87222 24.6141 7.54214 25.284 7.7144 26.1262C7.7144 26.1645 7.79097 26.1645 7.79097 26.1262C7.96323 25.284 8.63315 24.6141 9.49448 24.4609C9.53276 24.442 9.53276 24.3844 9.49448 24.3844Z" fill="#F5C84C"/>
<path d="M35.633 15.3527C35.0287 15.2454 34.5586 14.7753 34.4377 14.1844C34.4377 14.1576 34.3839 14.1576 34.3839 14.1844C34.2631 14.7753 33.793 15.2454 33.1886 15.3527C33.1618 15.3527 33.1618 15.3929 33.1886 15.4065C33.7928 15.5141 34.2629 15.984 34.3839 16.5749C34.3839 16.6017 34.4377 16.6017 34.4377 16.5749C34.5586 15.984 35.0285 15.5139 35.633 15.4065C35.6598 15.3929 35.6598 15.3527 35.633 15.3527Z" fill="#70D6F9"/>
<path d="M34.8845 3.18628H34.4442V2.74604C34.4442 2.42065 34.1763 2.13354 33.8317 2.13354C33.4872 2.13354 33.2192 2.40151 33.2192 2.74604V3.18628H32.779C32.4536 3.18628 32.1665 3.45425 32.1665 3.79878C32.1665 4.14331 32.4345 4.41128 32.779 4.41128H33.2192V4.85151C33.2192 5.1769 33.4872 5.46401 33.8317 5.46401C34.1763 5.46401 34.4442 5.19605 34.4442 4.85151V4.41128H34.8845C35.2099 4.41128 35.497 4.14331 35.497 3.79878C35.497 3.45444 35.229 3.18628 34.8845 3.18628Z" fill="#87D147"/>
<path d="M6.01117 28.9023C5.65155 28.9023 5.36011 29.1938 5.36011 29.5534C5.36011 29.913 5.65155 30.2045 6.01117 30.2045C6.37078 30.2045 6.66223 29.913 6.66223 29.5534C6.66223 29.1938 6.37078 28.9023 6.01117 28.9023Z" fill="#FC657E"/>
<path d="M29.5446 0C29.185 0 28.8936 0.291446 28.8936 0.651061C28.8936 1.01068 29.185 1.30212 29.5446 1.30212C29.9042 1.30212 30.1957 1.01068 30.1957 0.651061C30.1957 0.291446 29.9042 0 29.5446 0Z" fill="#F5C84C"/>
<path d="M43.1994 33.6667H1.78104C0.79893 33.6667 0 34.4657 0 35.4478C0 36.4299 0.79893 37.2288 1.78104 37.2288H43.1996C44.1817 37.2288 44.9807 36.4299 44.9807 35.4478C44.9807 34.4657 44.1815 33.6667 43.1994 33.6667ZM43.1994 36.2716H1.78104C1.32664 36.2716 0.957031 35.902 0.957031 35.4476C0.957031 34.9932 1.32664 34.6236 1.78104 34.6236H43.1996C43.654 34.6236 44.0236 34.9932 44.0236 35.4476C44.0236 35.902 43.6538 36.2716 43.1994 36.2716Z" fill="#222222"/>
<path d="M43.1039 36.409C42.8438 36.3788 42.6045 36.5681 42.5746 36.8309C42.4814 37.6578 41.7845 38.2814 40.954 38.2814H4.02618C3.1972 38.2814 2.48422 37.6339 2.40325 36.8074C2.37722 36.5444 2.14236 36.3533 1.88033 36.3778C1.61734 36.4037 1.42497 36.6378 1.45081 36.9008C1.58173 38.2335 2.68883 39.2384 4.02618 39.2384H40.9542C42.2722 39.2384 43.3778 38.2496 43.5259 36.9381C43.5554 36.6755 43.3665 36.4387 43.1039 36.409Z" fill="#222222"/>
<path d="M41.2002 38.377C40.9359 38.377 40.7217 38.5911 40.7217 38.8555V47.8399C40.7217 47.9519 40.6306 48.043 40.5186 48.043H4.46187C4.3499 48.043 4.25879 47.9519 4.25879 47.8399V38.9154C4.25879 38.651 4.04461 38.4369 3.78027 38.4369C3.51594 38.4369 3.30176 38.651 3.30176 38.9154V47.8399C3.30176 48.4796 3.82219 49 4.46187 49H40.5188C41.1585 49 41.6789 48.4796 41.6789 47.8399V38.8555C41.6787 38.5911 41.4645 38.377 41.2002 38.377Z" fill="#222222"/>
<path d="M20.7887 33.9154L18.7372 23.604C18.6854 23.3448 18.4337 23.1773 18.1745 23.228C17.9153 23.2797 17.7471 23.5316 17.7986 23.7908L19.8501 34.1022C19.8954 34.3298 20.0953 34.4873 20.3188 34.4873C20.3498 34.4873 20.3812 34.4843 20.4128 34.4781C20.672 34.4267 20.8404 34.1748 20.7887 33.9154Z" fill="#222222"/>
<path d="M19.1812 33.8335L17.3803 29.2472L17.8672 28.517C18.09 28.183 18.0085 27.7385 17.6818 27.505L16.7569 26.8443L16.8712 23.6419C16.8807 23.3777 16.6742 23.1561 16.4101 23.1467C16.1532 23.1352 15.9243 23.3436 15.9149 23.6078L15.7964 26.9268C15.7872 27.176 15.9032 27.411 16.1055 27.5552L16.9542 28.1613L16.5209 28.8112C16.3875 29.0118 16.3599 29.2658 16.448 29.4918L18.2904 34.1838C18.3645 34.3723 18.545 34.4875 18.736 34.4875C18.7942 34.4875 18.8532 34.4768 18.9108 34.4542C19.1567 34.3572 19.2779 34.0794 19.1812 33.8335Z" fill="#222222"/>
</svg>
