{
  "accessors": [
    {
      "bufferView": 2,
      "componentType": 5126,
      "count": 65532,
      "max": [
        0.7384128570556641,
        0.968084990978241,
        0.9999166131019592
      ],
      "min": [
        -0.9979919791221619,
        -0.18042416870594025,
        -0.9999166131019592
      ],
      "type": "VEC3"
    },
    {
      "bufferView": 2,
      "byteOffset": 786384,
      "componentType": 5126,
      "count": 65532,
      "max": [
        0.7399728298187256,
        0.970124363899231,
        1.0
      ],
      "min": [
        -1.0,
        -0.18108554184436798,
        -1.0
      ],
      "type": "VEC3"
    },
    {
      "bufferView": 1,
      "componentType": 5126,
      "count": 65532,
      "max": [
        1.0000001192092896,
        1.0000001192092896
      ],
      "min": [
        0.1874973028898239,
        0.0
      ],
      "type": "VEC2"
    },
    {
      "bufferView": 0,
      "componentType": 5125,
      "count": 381477,
      "type": "SCALAR"
    },
    {
      "bufferView": 2,
      "byteOffset": 1572768,
      "componentType": 5126,
      "count": 65532,
      "max": [
        0.9979920983314514,
        0.9979940056800842,
        0.9999166131019592
      ],
      "min": [
        -0.5095865726470947,
        -0.7079756259918213,
        -0.9999166131019592
      ],
      "type": "VEC3"
    },
    {
      "bufferView": 2,
      "byteOffset": 2359152,
      "componentType": 5126,
      "count": 65532,
      "max": [
        1.0,
        1.0,
        1.0
      ],
      "min": [
        -0.5112139582633972,
        -0.7099613547325134,
        -1.0
      ],
      "type": "VEC3"
    },
    {
      "bufferView": 1,
      "byteOffset": 524256,
      "componentType": 5126,
      "count": 65532,
      "max": [
        0.8301528096199036,
        1.0000001192092896
      ],
      "min": [
        0.0,
        0.0
      ],
      "type": "VEC2"
    },
    {
      "bufferView": 0,
      "byteOffset": 1525908,
      "componentType": 5125,
      "count": 385683,
      "type": "SCALAR"
    },
    {
      "bufferView": 2,
      "byteOffset": 3145536,
      "componentType": 5126,
      "count": 65532,
      "max": [
        0.9680834412574768,
        0.8962238430976868,
        0.9999166131019592
      ],
      "min": [
        -0.9967896342277527,
        -0.9979901909828186,
        -0.9999166131019592
      ],
      "type": "VEC3"
    },
    {
      "bufferView": 2,
      "byteOffset": 3931920,
      "componentType": 5126,
      "count": 65532,
      "max": [
        0.9701241850852966,
        0.8982928395271301,
        1.0
      ],
      "min": [
        -0.9987956285476685,
        -1.0,
        -1.0
      ],
      "type": "VEC3"
    },
    {
      "bufferView": 1,
      "byteOffset": 1048512,
      "componentType": 5126,
      "count": 65532,
      "max": [
        1.0000001192092896,
        1.0000001192092896
      ],
      "min": [
        0.0,
        0.0
      ],
      "type": "VEC2"
    },
    {
      "bufferView": 0,
      "byteOffset": 3068640,
      "componentType": 5125,
      "count": 367608,
      "type": "SCALAR"
    },
    {
      "bufferView": 2,
      "byteOffset": 4718304,
      "componentType": 5126,
      "count": 65532,
      "max": [
        0.929776668548584,
        0.2014770656824112,
        0.9999166131019592
      ],
      "min": [
        -0.9979919791221619,
        -0.9979713559150696,
        -0.9995989799499512
      ],
      "type": "VEC3"
    },
    {
      "bufferView": 2,
      "byteOffset": 5504688,
      "componentType": 5126,
      "count": 65532,
      "max": [
        0.9317370653152466,
        0.2019999474287033,
        1.0
      ],
      "min": [
        -1.0,
        -0.9999813437461853,
        -0.9997285008430481
      ],
      "type": "VEC3"
    },
    {
      "bufferView": 1,
      "byteOffset": 1572768,
      "componentType": 5126,
      "count": 65532,
      "max": [
        0.5605474710464478,
        1.0000001192092896
      ],
      "min": [
        0.0,
        0.003569145919755101
      ],
      "type": "VEC2"
    },
    {
      "bufferView": 0,
      "byteOffset": 4539072,
      "componentType": 5125,
      "count": 376428,
      "type": "SCALAR"
    },
    {
      "bufferView": 2,
      "byteOffset": 6291072,
      "componentType": 5126,
      "count": 9990,
      "max": [
        0.8959181904792786,
        0.4418385624885559,
        0.9999166131019592
      ],
      "min": [
        -0.10947132110595703,
        -0.9979901909828186,
        -0.9995989799499512
      ],
      "type": "VEC3"
    },
    {
      "bufferView": 2,
      "byteOffset": 6410952,
      "componentType": 5126,
      "count": 9990,
      "max": [
        0.8977715969085693,
        0.4432609975337982,
        1.0
      ],
      "min": [
        -0.10969709604978561,
        -1.0,
        -0.9997284412384033
      ],
      "type": "VEC3"
    },
    {
      "bufferView": 1,
      "byteOffset": 2097024,
      "componentType": 5126,
      "count": 9990,
      "max": [
        0.7480470538139343,
        1.0000001192092896
      ],
      "min": [
        0.22265616059303284,
        0.003569145919755101
      ],
      "type": "VEC2"
    },
    {
      "bufferView": 0,
      "byteOffset": 6044784,
      "componentType": 5125,
      "count": 49380,
      "type": "SCALAR"
    },
    {
      "bufferView": 3,
      "componentType": 5126,
      "count": 4,
      "max": [
        8.291666984558105
      ],
      "min": [
        0.0
      ],
      "type": "SCALAR"
    },
    {
      "bufferView": 4,
      "componentType": 5126,
      "count": 4,
      "max": [
        100.00000762939453,
        100.00000762939453,
        100.00000762939453
      ],
      "min": [
        100.0,
        100.0,
        100.0
      ],
      "type": "VEC3"
    },
    {
      "bufferView": 3,
      "byteOffset": 16,
      "componentType": 5126,
      "count": 398,
      "max": [
        8.291666984558105
      ],
      "min": [
        0.0
      ],
      "type": "SCALAR"
    },
    {
      "bufferView": 5,
      "componentType": 5126,
      "count": 398,
      "max": [
        -0.39826714992523193,
        0.4962417185306549,
        0.26704442501068115,
        0.8775341510772705
      ],
      "min": [
        -0.4795105457305908,
        0.002092202426865697,
        -0.0038289902731776237,
        0.7237504720687866
      ],
      "type": "VEC4"
    }
  ],
  "animations": [
    {
      "channels": [
        {
          "sampler": 0,
          "target": {
            "node": 4,
            "path": "scale"
          }
        },
        {
          "sampler": 1,
          "target": {
            "node": 4,
            "path": "rotation"
          }
        }
      ],
      "name": "Sphere|SphereAction",
      "samplers": [
        {
          "input": 20,
          "interpolation": "LINEAR",
          "output": 21
        },
        {
          "input": 22,
          "interpolation": "LINEAR",
          "output": 23
        }
      ]
    }
  ],
  "asset": {
    "extras": {
      "author": "RenderX (https://sketchfab.com/RenderX)",
      "license": "CC-BY-4.0 (http://creativecommons.org/licenses/by/4.0/)",
      "source": "https://sketchfab.com/3d-models/moon-26cc0b7878bb4d919b68e2be399db466",
      "title": "moon"
    },
    "generator": "Sketchfab-15.16.0",
    "version": "2.0"
  },
  "bufferViews": [
    {
      "buffer": 0,
      "byteLength": 6242304,
      "name": "floatBufferViews",
      "target": 34963
    },
    {
      "buffer": 0,
      "byteLength": 2176944,
      "byteOffset": 6242304,
      "byteStride": 8,
      "name": "floatBufferViews",
      "target": 34962
    },
    {
      "buffer": 0,
      "byteLength": 6530832,
      "byteOffset": 8419248,
      "byteStride": 12,
      "name": "floatBufferViews",
      "target": 34962
    },
    {
      "buffer": 0,
      "byteLength": 1608,
      "byteOffset": 14950080,
      "name": "floatBufferViews"
    },
    {
      "buffer": 0,
      "byteLength": 48,
      "byteOffset": 14951688,
      "byteStride": 12,
      "name": "floatBufferViews"
    },
    {
      "buffer": 0,
      "byteLength": 6368,
      "byteOffset": 14951736,
      "byteStride": 16,
      "name": "floatBufferViews"
    }
  ],
  "buffers": [
    {
      "byteLength": 14958104,
      "uri": "moon.bin"
    }
  ],
  "images": [
    {
      "uri": "textures/Material.001_baseColor.jpeg"
    }
  ],
  "materials": [
    {
      "doubleSided": true,
      "name": "Material.001",
      "pbrMetallicRoughness": {
        "baseColorTexture": {
          "index": 0
        },
        "metallicFactor": 0.0,
        "roughnessFactor": 0.805531103175454
      }
    }
  ],
  "meshes": [
    {
      "name": "Sphere_Material.001_0",
      "primitives": [
        {
          "attributes": {
            "NORMAL": 1,
            "POSITION": 0,
            "TEXCOORD_0": 2
          },
          "indices": 3,
          "material": 0,
          "mode": 4
        }
      ]
    },
    {
      "name": "Sphere_Material.001_0",
      "primitives": [
        {
          "attributes": {
            "NORMAL": 5,
            "POSITION": 4,
            "TEXCOORD_0": 6
          },
          "indices": 7,
          "material": 0,
          "mode": 4
        }
      ]
    },
    {
      "name": "Sphere_Material.001_0",
      "primitives": [
        {
          "attributes": {
            "NORMAL": 9,
            "POSITION": 8,
            "TEXCOORD_0": 10
          },
          "indices": 11,
          "material": 0,
          "mode": 4
        }
      ]
    },
    {
      "name": "Sphere_Material.001_0",
      "primitives": [
        {
          "attributes": {
            "NORMAL": 13,
            "POSITION": 12,
            "TEXCOORD_0": 14
          },
          "indices": 15,
          "material": 0,
          "mode": 4
        }
      ]
    },
    {
      "name": "Sphere_Material.001_0",
      "primitives": [
        {
          "attributes": {
            "NORMAL": 17,
            "POSITION": 16,
            "TEXCOORD_0": 18
          },
          "indices": 19,
          "material": 0,
          "mode": 4
        }
      ]
    }
  ],
  "nodes": [
    {
      "children": [
        1
      ],
      "matrix": [
        1.0,
        0.0,
        0.0,
        0.0,
        0.0,
        2.220446049250313e-16,
        -1.0,
        0.0,
        0.0,
        1.0,
        2.220446049250313e-16,
        0.0,
        0.0,
        0.0,
        0.0,
        1.0
      ],
      "name": "Sketchfab_model"
    },
    {
      "children": [
        2
      ],
      "matrix": [
        0.009999999776482582,
        0.0,
        0.0,
        0.0,
        0.0,
        0.0,
        0.009999999776482582,
        0.0,
        0.0,
        -0.009999999776482582,
        0.0,
        0.0,
        0.0,
        0.0,
        0.0,
        1.0
      ],
      "name": "b964401c34154430bb1a8d7a5fa66a66.fbx"
    },
    {
      "children": [
        3
      ],
      "name": "Object_2"
    },
    {
      "children": [
        4,
        10
      ],
      "name": "RootNode"
    },
    {
      "children": [
        5,
        6,
        7,
        8,
        9
      ],
      "name": "Sphere",
      "rotation": [
        -0.41791507601737976,
        0.4381738603115082,
        0.23510898649692535,
        0.7603120803833008
      ],
      "scale": [
        99.99999237060547,
        100.0,
        100.0
      ]
    },
    {
      "mesh": 0,
      "name": "Sphere_Material.001_0"
    },
    {
      "mesh": 1,
      "name": "Sphere_Material.001_0"
    },
    {
      "mesh": 2,
      "name": "Sphere_Material.001_0"
    },
    {
      "mesh": 3,
      "name": "Sphere_Material.001_0"
    },
    {
      "mesh": 4,
      "name": "Sphere_Material.001_0"
    },
    {
      "children": [
        11
      ],
      "name": "Camera",
      "rotation": [
        -0.14210566878318787,
        0.94383704662323,
        0.037176694720983505,
        -0.29596537351608276
      ],
      "scale": [
        100.00000762939453,
        100.00000762939453,
        100.0
      ],
      "translation": [
        528.602294921875,
        195.59605407714844,
        -369.364990234375
      ]
    },
    {
      "name": "Object_11"
    }
  ],
  "samplers": [
    {
      "magFilter": 9729,
      "minFilter": 9987,
      "wrapS": 10497,
      "wrapT": 10497
    }
  ],
  "scene": 0,
  "scenes": [
    {
      "name": "Sketchfab_Scene",
      "nodes": [
        0
      ]
    }
  ],
  "textures": [
    {
      "sampler": 0,
      "source": 0
    }
  ]
}
