<?xml version="1.0" encoding="UTF-8"?>
<svg xmlns="http://www.w3.org/2000/svg" xmlns:xlink="http://www.w3.org/1999/xlink" width="10pt" height="10pt" viewBox="0 0 98 98" version="1.1">
<g id="surface1">
<path style=" stroke:none;fill-rule:nonzero;fill:rgb(86.27451%,96.078431%,97.647059%);fill-opacity:1;" d="M 5.765625 58.136719 C 5.765625 58.136719 21.351562 58.742188 29.050781 73.375 C 33.332031 81.511719 42.605469 83.722656 42.605469 83.722656 C 42.605469 83.722656 26.007812 86.136719 13.292969 77.53125 C 4.710938 71.726562 5.765625 58.136719 5.765625 58.136719 "/>
<path style=" stroke:none;fill-rule:nonzero;fill:rgb(86.27451%,96.078431%,97.647059%);fill-opacity:1;" d="M 5.976562 82.226562 C 5.976562 82.226562 11.9375 86.347656 21.363281 83.636719 C 26.753906 82.089844 31.605469 82.050781 31.605469 82.050781 C 31.605469 82.050781 27.78125 76.066406 18.101562 76.207031 C 12.25 76.289062 5.976562 82.226562 5.976562 82.226562 "/>
<path style=" stroke:none;fill-rule:nonzero;fill:rgb(0%,22.352941%,46.666667%);fill-opacity:1;" d="M 83.582031 49.039062 C 83.582031 49.722656 84.066406 50.050781 83.851562 51.019531 C 83.707031 51.660156 82.863281 51.921875 82.636719 52.519531 C 82.304688 53.382812 83.121094 55.152344 82.0625 55.945312 C 81.292969 56.523438 80.089844 56.3125 79.34375 56.902344 C 78.546875 57.523438 78.351562 58.59375 77.398438 58.949219 C 76.347656 59.34375 75.242188 58.964844 74.058594 58.964844 C 73 58.964844 71.949219 59.386719 70.992188 59.070312 C 70.105469 58.773438 69.808594 57.550781 69.050781 57.027344 C 68.492188 56.640625 67.4375 57 66.964844 56.507812 C 66.4375 55.957031 66.484375 54.367188 66.085938 53.707031 C 65.515625 52.765625 64.570312 52.703125 64.316406 51.589844 C 64.132812 50.804688 64.984375 49.683594 64.984375 48.84375 C 64.984375 48.0625 64.121094 47.601562 64.277344 46.871094 C 64.460938 45.996094 65.863281 45.707031 66.246094 44.933594 C 66.570312 44.265625 65.859375 43.101562 66.3125 42.527344 C 66.890625 41.796875 68.617188 42.179688 69.363281 41.636719 C 70.257812 40.984375 70.207031 39.445312 71.28125 39.125 C 72.152344 38.867188 72.824219 39.773438 73.777344 39.773438 C 74.859375 39.773438 76.152344 38.90625 77.132812 39.242188 C 77.980469 39.53125 78.128906 40.753906 78.859375 41.253906 C 79.621094 41.777344 80.863281 41.234375 81.457031 41.941406 C 82.117188 42.730469 82.007812 43.828125 82.417969 44.796875 C 82.679688 45.410156 83.601562 45.5625 83.914062 46.652344 C 84.230469 47.769531 83.582031 48.261719 83.582031 49.039062 "/>
<path style=" stroke:none;fill-rule:nonzero;fill:rgb(0%,22.352941%,46.666667%);fill-opacity:1;" d="M 71.132812 43.816406 C 70.226562 44.996094 70.078125 46.597656 70.765625 47.828125 C 70.78125 47.855469 75.816406 49.011719 76.109375 49.023438 C 78.863281 49.121094 78.605469 45.609375 78.183594 44.636719 C 77.160156 42.261719 73.066406 41.292969 71.132812 43.816406 "/>
<path style=" stroke:none;fill-rule:nonzero;fill:rgb(72.54902%,47.058824%,37.647059%);fill-opacity:1;" d="M 74.097656 60.4375 C 75.519531 60.480469 77.21875 56.589844 77.742188 55.765625 C 77.742188 55.765625 76.996094 55.386719 76.628906 55.277344 C 74.234375 54.554688 73.230469 54.292969 70.386719 55.4375 C 70.046875 55.574219 69.128906 56.167969 69.128906 56.167969 C 69.152344 56.273438 72.847656 60.398438 74.097656 60.4375 "/>
<path style=" stroke:none;fill-rule:nonzero;fill:rgb(72.54902%,47.058824%,37.647059%);fill-opacity:1;" d="M 71.9375 51.433594 L 75.136719 51.496094 C 75.167969 51.496094 75.191406 51.519531 75.1875 51.550781 L 75.101562 56.164062 C 75.09375 56.488281 74.828125 56.746094 74.5 56.738281 L 72.375 56.699219 C 72.046875 56.691406 71.789062 56.425781 71.796875 56.097656 L 71.886719 51.488281 C 71.886719 51.457031 71.910156 51.433594 71.9375 51.433594 "/>
<path style=" stroke:none;fill-rule:nonzero;fill:rgb(76.078431%,52.54902%,43.137255%);fill-opacity:1;" d="M 77.75 49.210938 C 77.707031 49.628906 77.335938 49.933594 76.921875 49.890625 C 76.507812 49.851562 76.203125 49.476562 76.246094 49.058594 C 76.289062 48.640625 76.660156 48.332031 77.074219 48.375 C 77.488281 48.417969 77.789062 48.789062 77.75 49.210938 "/>
<path style=" stroke:none;fill-rule:nonzero;fill:rgb(76.078431%,52.54902%,43.137255%);fill-opacity:1;" d="M 71.464844 48.535156 C 71.421875 48.953125 71.050781 49.257812 70.636719 49.214844 C 70.222656 49.175781 69.917969 48.800781 69.960938 48.382812 C 70.003906 47.964844 70.375 47.65625 70.789062 47.699219 C 71.203125 47.742188 71.503906 48.113281 71.464844 48.535156 "/>
<path style=" stroke:none;fill-rule:nonzero;fill:rgb(76.078431%,52.54902%,43.137255%);fill-opacity:1;" d="M 77.164062 48.523438 C 76.757812 51.117188 74.609375 52.84375 73.503906 52.730469 C 72.398438 52.617188 70.472656 50.757812 70.738281 48.144531 C 71 45.53125 71.386719 43.351562 74.414062 43.738281 C 78.796875 44.296875 77.363281 47.285156 77.164062 48.523438 "/>
<path style=" stroke:none;fill-rule:nonzero;fill:rgb(0%,22.352941%,46.666667%);fill-opacity:1;" d="M 76.667969 43.09375 C 75.917969 42.390625 73.199219 41.539062 71.351562 43.1875 C 69.023438 45.273438 70.789062 47.707031 70.789062 47.707031 C 70.789062 47.707031 71 45.792969 71.867188 45.296875 C 72.929688 44.691406 73.5625 45.445312 74.144531 45.765625 C 75.183594 46.339844 76.371094 45.335938 76.945312 45.851562 C 77.585938 46.425781 77.191406 48.390625 77.191406 48.390625 C 77.191406 48.390625 77.808594 47.820312 78.015625 47.109375 C 78.546875 45.289062 77.285156 43.667969 76.667969 43.09375 "/>
<path style=" stroke:none;fill-rule:nonzero;fill:rgb(17.647059%,47.843137%,75.294118%);fill-opacity:1;" d="M 83.609375 77.988281 C 82.640625 74.636719 80.554688 71.496094 78.433594 67.53125 C 78.433594 67.53125 75.8125 68.089844 73.789062 68.335938 C 71.34375 68.632812 69.867188 68.152344 69.867188 68.152344 C 65.550781 76.804688 65.402344 78.742188 65.550781 82.480469 C 65.59375 83.585938 65.898438 89.207031 65.898438 89.207031 L 74.921875 89.207031 L 75.210938 86.816406 L 75.699219 89.207031 L 83.609375 89.207031 C 83.609375 89.207031 83.902344 83.914062 84 82.785156 C 84.097656 81.660156 83.800781 78.648438 83.609375 77.988281 "/>
<path style=" stroke:none;fill-rule:nonzero;fill:rgb(0%,78.039216%,81.960784%);fill-opacity:1;" d="M 69.773438 68.101562 L 66.019531 76.289062 C 66.019531 76.289062 69.226562 77.003906 70.3125 77.144531 C 72.898438 77.488281 74.632812 77.492188 74.632812 77.492188 L 74.824219 75.921875 L 75.386719 77.394531 C 75.386719 77.394531 77.78125 76.78125 79.359375 76.050781 C 80.550781 75.5 82.414062 74.40625 82.414062 74.40625 L 78.457031 67.46875 L 69.773438 68.101562 "/>
<path style=" stroke:none;fill-rule:nonzero;fill:rgb(76.078431%,52.54902%,43.137255%);fill-opacity:1;" d="M 60.109375 67.277344 C 60.847656 68.671875 63.785156 73.332031 63.789062 73.476562 C 63.808594 73.867188 64.425781 75.308594 64.640625 75.792969 C 64.914062 76.410156 66.0625 77.714844 66.398438 78.101562 C 66.660156 78.402344 66.863281 78.160156 66.742188 77.933594 C 66.558594 77.582031 66.539062 77.492188 66.539062 77.492188 C 66.539062 77.492188 67.183594 78.21875 67.703125 78.542969 C 67.75 78.574219 68.121094 78.714844 68.285156 78.515625 C 68.382812 78.398438 68.363281 78.234375 68.285156 78.121094 C 67.804688 77.417969 67.53125 76.773438 67.53125 76.773438 C 67.53125 76.773438 67.929688 76.953125 68.382812 77.539062 C 68.507812 77.703125 68.851562 77.789062 68.691406 77.222656 C 68.480469 76.476562 67.355469 75.191406 67.277344 74.398438 C 67.222656 73.898438 67.386719 73.3125 67.386719 73.3125 C 67.128906 73.15625 65.664062 72.316406 65.433594 72.121094 C 64.144531 71.046875 63.242188 67 62.761719 66.488281 C 61.398438 65.03125 59.800781 66.691406 60.109375 67.277344 "/>
<path style=" stroke:none;fill-rule:nonzero;fill:rgb(76.078431%,52.54902%,43.137255%);fill-opacity:1;" d="M 86.191406 75.46875 L 85.578125 77.476562 C 85.578125 77.476562 84.976562 78.792969 84.613281 79.09375 C 84.304688 79.351562 83.21875 79.941406 83.113281 79.734375 C 82.972656 79.457031 83.21875 79.371094 83.21875 79.371094 C 83.21875 79.371094 82.476562 79.792969 82.210938 79.890625 C 82.085938 79.9375 81.890625 80.011719 81.777344 79.945312 C 81.699219 79.902344 81.578125 79.753906 81.601562 79.671875 C 81.761719 79.09375 82.164062 78.933594 82.164062 78.933594 C 82.164062 78.933594 82.230469 79.191406 81.316406 79.257812 C 81.089844 79.277344 80.953125 79.058594 81.027344 78.992188 C 82.136719 77.917969 82.882812 77.019531 82.847656 75.976562 L 82.582031 75.257812 L 84.320312 74.101562 C 84.320312 74.101562 85.839844 65.992188 87.496094 66.996094 C 87.933594 67.257812 86.191406 75.46875 86.191406 75.46875 "/>
<path style=" stroke:none;fill-rule:nonzero;fill:rgb(0%,78.039216%,81.960784%);fill-opacity:1;" d="M 87.78125 66.050781 C 87.78125 66.050781 82.921875 59.890625 79.84375 56.988281 C 78.925781 56.121094 76.472656 54.980469 76.472656 54.980469 C 76.472656 54.980469 76.171875 57.429688 73.25 57.535156 C 70.601562 57.632812 69.941406 55.414062 69.941406 55.414062 C 69.941406 55.414062 68.03125 56.328125 67.042969 57.15625 C 65.617188 58.347656 60.347656 64.742188 59.328125 66.308594 C 59.078125 66.691406 59.179688 66.984375 59.320312 67.144531 C 60.089844 68.027344 63.125 73.234375 63.125 73.234375 L 65.191406 71.609375 L 63.601562 67.144531 C 63.601562 67.144531 67.039062 62.933594 67.585938 63.363281 C 68.484375 64.070312 69.585938 67.425781 69.941406 68.5625 C 70.335938 69.832031 77.957031 70.074219 78.433594 67.53125 C 78.53125 66.992188 78.636719 64.488281 79.460938 64.207031 C 80.894531 63.710938 84.285156 67.054688 84.285156 67.054688 L 84.066406 73.863281 L 86.960938 74.46875 L 87.828125 66.910156 L 87.78125 66.050781 "/>
<path style=" stroke:none;fill-rule:nonzero;fill:rgb(82.745098%,94.901961%,96.862745%);fill-opacity:1;" d="M 51.683594 12.960938 L 20.914062 12.960938 C 19.160156 12.960938 17.738281 14.382812 17.738281 16.136719 L 17.738281 29.4375 C 17.738281 31.191406 19.160156 32.613281 20.914062 32.613281 L 51.683594 32.613281 C 53.4375 32.613281 54.859375 31.191406 54.859375 29.4375 L 54.859375 16.136719 C 54.859375 14.382812 53.4375 12.960938 51.683594 12.960938 "/>
<path style=" stroke:none;fill-rule:nonzero;fill:rgb(86.27451%,96.078431%,97.647059%);fill-opacity:1;" d="M 57.25 18.410156 L 29.285156 18.410156 C 27.6875 18.410156 26.398438 19.699219 26.398438 21.292969 L 26.398438 33.386719 C 26.398438 34.980469 27.6875 36.269531 29.285156 36.269531 L 31.828125 36.269531 L 31.828125 40.273438 L 35.832031 36.269531 L 57.25 36.269531 C 58.84375 36.269531 60.136719 34.980469 60.136719 33.386719 L 60.136719 21.292969 C 60.136719 19.699219 58.84375 18.410156 57.25 18.410156 "/>
<path style=" stroke:none;fill-rule:nonzero;fill:rgb(94.901961%,98.431373%,99.215686%);fill-opacity:1;" d="M 46.894531 28.078125 L 31.871094 28.078125 L 31.871094 22.117188 L 46.894531 22.117188 L 46.894531 28.078125 "/>
<path style=" stroke:none;fill-rule:nonzero;fill:rgb(94.901961%,98.431373%,99.215686%);fill-opacity:1;" d="M 54 28.078125 L 49.867188 28.066406 C 49.5 28.066406 49.203125 27.769531 49.203125 27.402344 C 49.203125 27.035156 49.5 26.742188 49.867188 26.742188 L 54 26.753906 C 54.367188 26.753906 54.664062 27.050781 54.664062 27.417969 C 54.664062 27.78125 54.367188 28.078125 54 28.078125 "/>
<path style=" stroke:none;fill-rule:nonzero;fill:rgb(94.901961%,98.431373%,99.215686%);fill-opacity:1;" d="M 54 23.457031 L 49.867188 23.441406 C 49.5 23.441406 49.203125 23.144531 49.203125 22.777344 C 49.203125 22.414062 49.5 22.117188 49.867188 22.117188 L 54 22.132812 C 54.367188 22.132812 54.664062 22.429688 54.664062 22.792969 C 54.664062 23.160156 54.367188 23.457031 54 23.457031 "/>
<path style=" stroke:none;fill-rule:nonzero;fill:rgb(94.901961%,98.431373%,99.215686%);fill-opacity:1;" d="M 54 32.699219 L 32.53125 32.691406 C 32.167969 32.691406 31.871094 32.394531 31.871094 32.03125 C 31.871094 31.664062 32.167969 31.367188 32.53125 31.367188 L 54 31.375 C 54.367188 31.375 54.664062 31.671875 54.664062 32.039062 C 54.664062 32.402344 54.367188 32.699219 54 32.699219 "/>
<path style=" stroke:none;fill-rule:nonzero;fill:rgb(86.27451%,96.078431%,97.647059%);fill-opacity:1;" d="M 6.691406 49.714844 L 7.414062 49.816406 L 7.511719 49.128906 L 6.792969 49.027344 Z M 7.699219 50.199219 L 6.3125 50 L 6.507812 48.648438 L 7.894531 48.84375 L 7.699219 50.199219 "/>
<path style=" stroke:none;fill-rule:nonzero;fill:rgb(0%,26.27451%,50.588235%);fill-opacity:1;" d="M 50.667969 52.570312 C 51.59375 52.445312 53.085938 55.054688 53.558594 57.445312 C 54.421875 61.855469 55.160156 63.191406 55.152344 66.84375 C 55.148438 67.65625 53.671875 75.027344 53.671875 75.027344 L 51.753906 73.472656 L 52.210938 67.941406 C 52.210938 67.941406 49.46875 52.738281 50.667969 52.570312 "/>
<path style=" stroke:none;fill-rule:nonzero;fill:rgb(0%,84.705882%,61.960784%);fill-opacity:1;" d="M 51.035156 68.519531 L 43.820312 68.714844 L 42.765625 53.878906 L 49.433594 54.136719 L 51.035156 68.519531 "/>
<path style=" stroke:none;fill-rule:nonzero;fill:rgb(100%,81.568627%,80.784314%);fill-opacity:1;" d="M 39.667969 89.207031 L 46.199219 89.207031 C 46.335938 86.847656 46.4375 84.53125 46.4375 84.53125 L 38.785156 77.40625 C 38.785156 77.40625 38.9375 82.574219 39.089844 84.535156 C 39.183594 85.679688 39.425781 87.542969 39.667969 89.207031 "/>
<path style=" stroke:none;fill-rule:nonzero;fill:rgb(100%,81.568627%,80.784314%);fill-opacity:1;" d="M 55.152344 89.207031 C 54.308594 84.496094 53.417969 79.898438 53.417969 79.898438 L 46.917969 82.855469 C 46.917969 82.855469 47.953125 85.761719 49.066406 89.207031 L 55.152344 89.207031 "/>
<path style=" stroke:none;fill-rule:nonzero;fill:rgb(0%,58.823529%,77.647059%);fill-opacity:1;" d="M 46.574219 81.015625 C 44.449219 81.210938 38.183594 79.347656 38.324219 76.519531 C 38.476562 73.441406 41.191406 68.261719 41.191406 68.261719 L 51.089844 68.078125 C 51.089844 68.078125 53.570312 73.566406 54.050781 75.609375 C 54.824219 78.917969 48.632812 80.828125 46.574219 81.015625 "/>
<path style=" stroke:none;fill-rule:nonzero;fill:rgb(91.764706%,39.607843%,61.568627%);fill-opacity:1;" d="M 43.007812 40.03125 C 39.777344 44.105469 40.308594 49.746094 41.164062 50.839844 C 42.304688 52.296875 48.339844 51.363281 50.875 51.71875 C 51.359375 51.785156 53.007812 46.460938 50.996094 41.148438 C 50.023438 38.582031 44.957031 37.574219 43.007812 40.03125 "/>
<path style=" stroke:none;fill-rule:nonzero;fill:rgb(100%,77.647059%,76.470588%);fill-opacity:1;" d="M 46.433594 55.894531 C 47.828125 55.746094 49.492188 53.644531 50.066406 52.867188 C 50.066406 52.867188 49.351562 52.449219 49 52.316406 C 46.6875 51.449219 45.714844 51.128906 42.84375 52.074219 C 42.503906 52.1875 41.558594 52.710938 41.558594 52.710938 C 41.574219 52.820312 45.023438 56.042969 46.433594 55.894531 "/>
<path style=" stroke:none;fill-rule:nonzero;fill:rgb(100%,77.647059%,76.470588%);fill-opacity:1;" d="M 47.203125 47.902344 L 44.253906 47.867188 C 44.175781 47.867188 44.109375 47.941406 44.105469 48.039062 L 44.066406 51.570312 C 44.054688 52.640625 44.867188 53.28125 45.761719 53.289062 C 46.65625 53.300781 47.292969 52.53125 47.308594 51.460938 L 47.347656 48.078125 C 47.347656 47.980469 47.285156 47.902344 47.203125 47.902344 "/>
<path style=" stroke:none;fill-rule:nonzero;fill:rgb(100%,77.647059%,76.470588%);fill-opacity:1;" d="M 50.363281 45.578125 C 50.335938 45.992188 49.980469 46.308594 49.570312 46.277344 C 49.160156 46.25 48.847656 45.890625 48.878906 45.476562 C 48.90625 45.0625 49.261719 44.75 49.671875 44.777344 C 50.082031 44.804688 50.390625 45.164062 50.363281 45.578125 "/>
<path style=" stroke:none;fill-rule:nonzero;fill:rgb(100%,81.568627%,80.784314%);fill-opacity:1;" d="M 47.15625 40.816406 C 45.484375 40.699219 44.035156 42 43.917969 43.71875 L 43.722656 46.550781 C 43.605469 48.269531 45.316406 49.78125 46.898438 49.894531 C 48.648438 50.015625 49.652344 48.683594 49.769531 46.964844 L 49.964844 44.132812 C 50.082031 42.414062 48.824219 40.929688 47.15625 40.816406 "/>
<path style=" stroke:none;fill-rule:nonzero;fill:rgb(91.764706%,39.607843%,61.568627%);fill-opacity:1;" d="M 49.429688 39.816406 C 48.683594 39.148438 46.699219 38.503906 44.769531 39.953125 C 42.796875 41.4375 43.539062 44.527344 43.878906 44.308594 C 45 43.585938 44.878906 42.445312 45.886719 42.476562 C 46.699219 42.5 47.867188 44.742188 50.535156 45.300781 C 50.742188 45.34375 51.15625 43.871094 51.082031 43.148438 C 50.867188 41.066406 50.039062 40.363281 49.429688 39.816406 "/>
<path style=" stroke:none;fill-rule:nonzero;fill:rgb(10.196078%,10.588235%,36.078431%);fill-opacity:1;" d="M 46.9375 45.160156 C 46.910156 45.582031 46.5625 45.90625 46.167969 45.878906 L 45.941406 45.863281 C 45.421875 45.828125 45.027344 45.347656 45.066406 44.789062 C 45.078125 44.609375 45.226562 44.46875 45.394531 44.480469 L 46.671875 44.566406 C 46.839844 44.578125 46.964844 44.734375 46.953125 44.914062 Z M 46.679688 44.402344 L 45.40625 44.316406 C 45.152344 44.300781 44.929688 44.507812 44.914062 44.777344 C 44.867188 45.425781 45.324219 45.988281 45.929688 46.027344 L 46.15625 46.042969 C 46.636719 46.074219 47.054688 45.683594 47.089844 45.167969 L 47.109375 44.925781 C 47.125 44.65625 46.933594 44.421875 46.679688 44.402344 "/>
<path style=" stroke:none;fill-rule:nonzero;fill:rgb(10.196078%,10.588235%,36.078431%);fill-opacity:1;" d="M 48.167969 44.996094 C 48.179688 44.816406 48.328125 44.679688 48.496094 44.691406 L 49.773438 44.777344 C 49.941406 44.789062 50.070312 44.945312 50.058594 45.125 C 50.019531 45.683594 49.566406 46.109375 49.042969 46.074219 L 48.816406 46.058594 C 48.421875 46.03125 48.125 45.664062 48.152344 45.242188 Z M 48.015625 44.988281 L 48 45.230469 C 47.964844 45.746094 48.328125 46.1875 48.808594 46.222656 L 49.035156 46.238281 C 49.636719 46.277344 50.167969 45.785156 50.210938 45.136719 C 50.230469 44.863281 50.039062 44.628906 49.785156 44.613281 L 48.507812 44.527344 C 48.253906 44.507812 48.035156 44.714844 48.015625 44.988281 "/>
<path style=" stroke:none;fill-rule:nonzero;fill:rgb(10.196078%,10.588235%,36.078431%);fill-opacity:1;" d="M 47.921875 44.980469 C 47.722656 44.792969 47.425781 44.769531 47.199219 44.925781 C 47.164062 44.945312 47.15625 44.992188 47.175781 45.027344 C 47.195312 45.0625 47.238281 45.070312 47.269531 45.050781 C 47.445312 44.929688 47.675781 44.945312 47.832031 45.09375 C 47.84375 45.101562 47.855469 45.109375 47.871094 45.109375 C 47.894531 45.109375 47.914062 45.101562 47.929688 45.085938 C 47.953125 45.054688 47.953125 45.007812 47.921875 44.980469 "/>
<path style=" stroke:none;fill-rule:nonzero;fill:rgb(100%,77.647059%,76.470588%);fill-opacity:1;" d="M 43.074219 45.085938 C 43.105469 44.671875 43.460938 44.359375 43.871094 44.386719 C 44.28125 44.414062 44.589844 44.773438 44.5625 45.1875 C 44.535156 45.601562 44.179688 45.914062 43.769531 45.886719 C 43.359375 45.859375 43.046875 45.5 43.074219 45.085938 "/>
<path style=" stroke:none;fill-rule:nonzero;fill:rgb(0%,22.352941%,46.666667%);fill-opacity:1;" d="M 43.882812 51.589844 C 43.882812 51.589844 47.1875 58.996094 47.441406 61.320312 C 47.792969 64.558594 48.007812 73.527344 48.007812 73.527344 L 39.050781 73.03125 L 39.640625 64.285156 C 39.640625 64.285156 37.96875 55.628906 40.058594 53.480469 C 40.804688 52.714844 43.882812 51.589844 43.882812 51.589844 "/>
<path style=" stroke:none;fill-rule:nonzero;fill:rgb(0%,22.352941%,46.666667%);fill-opacity:1;" d="M 47.582031 51.71875 C 47.582031 51.71875 49.34375 58.800781 49.40625 62.203125 C 49.460938 65.308594 49.222656 73.527344 49.222656 73.527344 L 53.136719 72.738281 C 53.136719 72.738281 53.15625 68.878906 52.96875 65.082031 C 52.691406 59.484375 52.628906 55.824219 51.035156 53.289062 C 50.425781 52.320312 47.582031 51.71875 47.582031 51.71875 "/>
<path style=" stroke:none;fill-rule:nonzero;fill:rgb(0%,58.823529%,77.647059%);fill-opacity:1;" d="M 46.714844 89.207031 L 47.910156 79.898438 C 47.910156 79.898438 38.539062 74.027344 38.34375 76.261719 C 38.136719 78.648438 38.523438 84.164062 38.980469 89.207031 L 46.714844 89.207031 "/>
<path style=" stroke:none;fill-rule:nonzero;fill:rgb(0%,58.823529%,77.647059%);fill-opacity:1;" d="M 56.042969 89.207031 C 55.476562 84.324219 54.753906 78.828125 54.050781 75.609375 C 53.601562 73.550781 46.5625 81.335938 46.5625 81.335938 L 48.527344 89.207031 L 56.042969 89.207031 "/>
<path style=" stroke:none;fill-rule:nonzero;fill:rgb(65.098039%,93.333333%,91.372549%);fill-opacity:1;" d="M 46.527344 62.679688 L 46.871094 61.898438 L 49.8125 61.964844 L 50.121094 62.742188 "/>
<path style=" stroke:none;fill-rule:nonzero;fill:rgb(34.509804%,85.882353%,85.882353%);fill-opacity:1;" d="M 50.160156 63.207031 L 50.082031 63.792969 L 49.621094 67.296875 C 49.597656 67.472656 49.445312 67.601562 49.269531 67.597656 L 47.171875 67.550781 C 46.996094 67.546875 46.851562 67.410156 46.835938 67.238281 L 46.46875 63.085938 L 50.160156 63.207031 "/>
<path style=" stroke:none;fill-rule:nonzero;fill:rgb(74.117647%,100%,84.705882%);fill-opacity:1;" d="M 50.40625 63.308594 L 46.21875 63.21875 L 46.238281 62.40625 L 50.421875 62.5 L 50.40625 63.308594 "/>
<path style=" stroke:none;fill-rule:nonzero;fill:rgb(100%,81.568627%,80.784314%);fill-opacity:1;" d="M 46.957031 66.867188 C 46.519531 67.015625 45.074219 66.785156 44.101562 66.648438 L 43.878906 65.355469 C 43.878906 65.355469 44.882812 65.207031 45.019531 65.175781 C 45.882812 64.949219 46.941406 64.335938 47.792969 64.070312 C 48.214844 63.9375 49.960938 64.3125 49.960938 64.3125 C 49.960938 64.3125 49.8125 64.542969 49.675781 64.621094 C 49.371094 64.792969 48.179688 64.617188 48.179688 64.617188 L 49.265625 65.367188 L 49.792969 66.140625 C 49.792969 66.140625 49.699219 66.257812 49.449219 66.269531 C 49.234375 66.277344 48.867188 65.75 48.867188 65.75 L 48.210938 65.65625 L 49.347656 66.972656 C 49.347656 66.972656 49.054688 67.207031 48.9375 67.230469 C 48.808594 67.253906 48.425781 67.136719 48.425781 67.136719 C 48.425781 67.136719 48.292969 67.28125 48.25 67.292969 C 47.832031 67.386719 47.257812 66.769531 46.957031 66.867188 "/>
<path style=" stroke:none;fill-rule:nonzero;fill:rgb(0%,26.27451%,50.588235%);fill-opacity:1;" d="M 40.339844 53.699219 C 39.199219 53.507812 37.535156 54.980469 36.769531 57.667969 C 35.65625 61.558594 35.660156 63.8125 35.492188 67.96875 C 35.421875 69.730469 36.410156 69.371094 36.964844 69.347656 C 41.558594 69.179688 45.316406 67.597656 45.316406 67.597656 L 44.910156 64.664062 L 39.574219 64.992188 L 40.625 58.007812 C 40.625 58.007812 40.972656 53.804688 40.339844 53.699219 "/>
<path style=" stroke:none;fill-rule:nonzero;fill:rgb(0%,81.568627%,73.72549%);fill-opacity:1;" d="M 34.292969 67.054688 C 35.011719 69.757812 36 74.554688 36 74.554688 C 36 74.554688 38.085938 75.476562 44.148438 75.855469 C 44.496094 75.875 44.679688 76.183594 44.871094 76.503906 C 44.902344 76.554688 45.601562 76.691406 45.78125 76.800781 C 46.082031 76.980469 45.402344 79.28125 45.113281 79.976562 C 44.871094 80.558594 44.273438 80.226562 44.273438 80.226562 C 44.273438 80.226562 44.054688 80.542969 43.714844 80.671875 C 41.308594 81.582031 34.25 79.808594 32.402344 79.15625 C 32.085938 79.046875 32.335938 78.839844 32.058594 78.234375 C 30.25 74.273438 30.226562 69.019531 30.59375 66.28125 C 30.667969 65.722656 31.328125 64.367188 31.777344 64.359375 C 33.0625 64.34375 33.769531 65.09375 34.292969 67.054688 "/>
<path style=" stroke:none;fill-rule:nonzero;fill:rgb(0%,39.215686%,62.352941%);fill-opacity:1;" d="M 32.894531 51.199219 C 31.324219 52.183594 30.292969 54.457031 31.128906 56.050781 C 31.851562 57.433594 36.265625 58.621094 36.585938 58.703125 C 39.609375 59.480469 39.980469 55.976562 39.601562 54.367188 C 38.972656 51.65625 35.820312 49.367188 32.894531 51.199219 "/>
<path style=" stroke:none;fill-rule:nonzero;fill:rgb(100%,77.647059%,76.470588%);fill-opacity:1;" d="M 27.914062 66.773438 C 29.273438 67.414062 32.167969 66.839844 33.027344 66.265625 C 33.027344 66.265625 32.519531 63.8125 32.210938 63.550781 C 30.195312 61.835938 30.234375 62.117188 26.992188 62.027344 C 26.609375 62.015625 25.960938 63.550781 25.960938 63.550781 C 25.9375 63.667969 26.71875 66.207031 27.914062 66.773438 "/>
<path style=" stroke:none;fill-rule:nonzero;fill:rgb(100%,77.647059%,76.470588%);fill-opacity:1;" d="M 31.578125 56.925781 L 33.503906 60.679688 C 33.585938 60.710938 33.628906 60.800781 33.601562 60.882812 L 32.058594 64.289062 C 31.742188 65.199219 31.316406 65.074219 30.402344 64.757812 C 29.492188 64.441406 28.78125 63.363281 29.097656 62.453125 L 31.375 57.023438 C 31.40625 56.941406 31.492188 56.898438 31.578125 56.925781 "/>
<path style=" stroke:none;fill-rule:nonzero;fill:rgb(0%,39.215686%,62.352941%);fill-opacity:1;" d="M 31.304688 57.210938 L 30.992188 55.148438 C 30.992188 55.148438 29.527344 57.191406 28.722656 58.765625 C 27.40625 61.335938 27.167969 63.503906 28.324219 65.664062 C 29.390625 67.648438 28.671875 68.511719 28.71875 68.519531 C 28.71875 68.519531 30.328125 66.71875 30.210938 65.421875 C 29.914062 62.066406 30.039062 61.527344 30.132812 60.46875 C 30.265625 58.980469 31.304688 57.210938 31.304688 57.210938 "/>
<path style=" stroke:none;fill-rule:nonzero;fill:rgb(100%,77.647059%,76.470588%);fill-opacity:1;" d="M 30.8125 56.335938 C 30.742188 56.773438 31.039062 57.1875 31.472656 57.253906 C 31.910156 57.324219 32.316406 57.023438 32.386719 56.582031 C 32.457031 56.144531 32.160156 55.730469 31.722656 55.664062 C 31.289062 55.59375 30.878906 55.894531 30.8125 56.335938 "/>
<path style=" stroke:none;fill-rule:nonzero;fill:rgb(100%,81.568627%,80.784314%);fill-opacity:1;" d="M 38.210938 58.820312 C 37.449219 61.460938 35.0625 62.738281 34.074219 62.246094 C 32.007812 61.214844 31.023438 59.242188 31.785156 56.605469 C 32.546875 53.964844 34.523438 52.578125 36.324219 53.097656 C 38.128906 53.617188 38.972656 56.179688 38.210938 58.820312 "/>
<path style=" stroke:none;fill-rule:nonzero;fill:rgb(0%,39.215686%,62.352941%);fill-opacity:1;" d="M 34.640625 51.804688 C 32.203125 52.148438 31.691406 55.511719 31.722656 55.664062 C 31.777344 55.902344 32.09375 56.136719 32.234375 56.128906 C 34.734375 55.976562 38.019531 54.882812 38.019531 54.882812 C 38.019531 54.882812 39.664062 57.335938 36.628906 62.824219 C 36.628906 62.824219 38.441406 60.972656 39.285156 58 C 40.351562 54.234375 38.183594 51.304688 34.640625 51.804688 "/>
<path style=" stroke:none;fill-rule:nonzero;fill:rgb(0%,39.215686%,62.352941%);fill-opacity:1;" d="M 43.054688 89.207031 C 38.898438 86.136719 34.058594 83.746094 34.058594 83.746094 C 33.195312 81.089844 32.273438 78.695312 32.273438 78.695312 L 20.441406 79.808594 C 20.441406 79.808594 19.515625 85.714844 19.3125 89.207031 L 43.054688 89.207031 "/>
<path style=" stroke:none;fill-rule:nonzero;fill:rgb(20.392157%,91.764706%,74.509804%);fill-opacity:1;" d="M 33.765625 66.972656 C 33.589844 66.199219 32.476562 64.0625 32.476562 64.0625 L 32.058594 64.625 L 28.410156 61.835938 C 28.410156 61.835938 24.644531 62.46875 23.625 63.296875 C 21.753906 64.816406 20.949219 68.035156 20.566406 70.316406 C 20.414062 71.230469 19.632812 74.796875 19.851562 78.445312 C 19.914062 79.464844 19.796875 81.421875 20.609375 81.8125 C 23.285156 83.117188 32.03125 82.164062 32.882812 80.320312 C 33.332031 79.34375 32.082031 75.703125 32.644531 74.277344 C 32.933594 73.546875 33.675781 72.378906 34.011719 71.667969 C 34.722656 70.175781 33.960938 67.824219 33.765625 66.972656 "/>
<path style=" stroke:none;fill-rule:nonzero;fill:rgb(0%,81.568627%,73.72549%);fill-opacity:1;" d="M 33.609375 64.992188 C 33.570312 64.960938 32.390625 63.824219 32.390625 63.824219 L 32.058594 64.625 C 32.058594 64.625 32.863281 66.3125 32.882812 66.265625 C 33.203125 65.523438 33.609375 64.992188 33.609375 64.992188 "/>
<path style=" stroke:none;fill-rule:nonzero;fill:rgb(0%,81.568627%,73.72549%);fill-opacity:1;" d="M 32.058594 64.625 L 31.175781 66.472656 C 29.761719 65.53125 26.136719 62.199219 26.136719 62.199219 L 28.015625 61.246094 L 32.058594 64.625 "/>
<path style=" stroke:none;fill-rule:nonzero;fill:rgb(0%,39.215686%,62.352941%);fill-opacity:1;" d="M 29.566406 57.480469 C 26.242188 61.894531 27.566406 68.054688 27.566406 68.054688 L 31.085938 68.289062 C 31.085938 68.289062 29.382812 64.441406 30.332031 59.273438 C 30.601562 57.804688 30.628906 56.066406 29.566406 57.480469 "/>
<path style=" stroke:none;fill-rule:nonzero;fill:rgb(100%,81.568627%,80.784314%);fill-opacity:1;" d="M 43.691406 79.675781 C 43.660156 79.644531 42.800781 78.835938 42.222656 78.734375 C 41.0625 78.535156 38.894531 79.132812 37.753906 79.410156 C 36.589844 79.691406 35.582031 79.933594 35.597656 81 C 35.601562 81.582031 36.515625 82.273438 37.023438 82.363281 C 37.722656 82.480469 39.003906 82.105469 39.703125 82.210938 C 40.113281 82.273438 40.738281 82.445312 41.101562 82.644531 C 41.226562 82.710938 41.484375 82.859375 41.625 82.839844 C 41.683594 82.835938 41.820312 82.71875 41.820312 82.71875 C 41.820312 82.71875 42.195312 83.089844 42.359375 83.136719 C 42.511719 83.183594 43 83.082031 43 83.082031 L 41.621094 80.804688 L 42.722656 81.589844 C 42.722656 81.589844 43.273438 82.296875 43.53125 82.417969 C 43.832031 82.558594 44.050781 82.328125 44.050781 82.328125 L 42.597656 79.847656 C 42.597656 79.847656 43.890625 80.769531 44.351562 80.75 C 44.558594 80.742188 44.871094 80.558594 44.871094 80.558594 L 43.691406 79.675781 "/>
<path style=" stroke:none;fill-rule:nonzero;fill:rgb(0%,81.568627%,73.72549%);fill-opacity:1;" d="M 26.496094 66.472656 C 27.171875 68.976562 26.667969 76.160156 26.667969 76.160156 C 26.667969 76.160156 29.703125 76.851562 34.84375 78.0625 C 35.183594 78.140625 35.351562 78.46875 35.542969 78.789062 C 35.574219 78.835938 36.351562 79.097656 36.441406 79.324219 C 36.742188 80.101562 36.074219 81.972656 35.277344 82.214844 C 35.144531 82.253906 34.09375 82.027344 34.09375 82.027344 C 34.09375 82.027344 33.660156 82.191406 33.296875 82.175781 C 27.582031 81.929688 23.015625 81.902344 21.074219 79.367188 C 20.957031 79.214844 20.898438 78.820312 20.878906 78.628906 C 20.578125 75.9375 21.34375 70.585938 21.359375 67.5625 C 21.367188 66.4375 23.199219 63.472656 24.164062 63.28125 C 25.425781 63.035156 25.96875 64.511719 26.496094 66.472656 "/>
<path style=" stroke:none;fill-rule:nonzero;fill:rgb(100%,81.568627%,80.784314%);fill-opacity:1;" d="M 44.320312 77.824219 C 44.511719 76.953125 44.804688 77.082031 45.996094 77.015625 C 47.171875 76.953125 49.492188 76.84375 50.59375 77.25 C 51.144531 77.453125 52.035156 78.875 52.0625 78.910156 L 52.425781 79.726562 C 52.425781 79.726562 52.058594 80 51.957031 79.792969 C 51.566406 79.023438 50.980469 78.667969 50.980469 78.667969 L 52.3125 80.074219 C 52.3125 80.074219 52.109375 80.304688 51.777344 80.28125 C 51.496094 80.265625 51.210938 79.953125 51.035156 79.796875 C 50.703125 79.511719 50.074219 78.929688 50.074219 78.929688 L 51.074219 80.882812 C 51.105469 80.945312 51.058594 81.019531 50.988281 81.015625 C 50.828125 81.011719 50.605469 80.976562 50.492188 80.902344 C 50.347656 80.8125 49.578125 80.023438 49.375 79.554688 C 49.324219 79.433594 48.691406 79.164062 48.410156 79.132812 C 48.183594 79.105469 47.636719 79.566406 48.457031 79.628906 C 48.703125 79.648438 49.105469 79.550781 49.34375 79.773438 C 49.386719 79.816406 49.527344 79.984375 49.402344 80.070312 C 49.285156 80.15625 48.933594 80.316406 48.652344 80.34375 C 48.210938 80.386719 47.847656 80.46875 47.6875 80.488281 C 46.5625 80.625 46.117188 80.1875 45.714844 80.03125 C 44.269531 79.46875 44.195312 78.394531 44.320312 77.824219 "/>
<path style=" stroke:none;fill-rule:nonzero;fill:rgb(54.901961%,91.764706%,90.588235%);fill-opacity:1;" d="M 57.898438 83.265625 L 43.121094 83.265625 L 47.8125 73.074219 C 48.019531 72.625 48.570312 72.316406 49.101562 72.34375 L 61.125 73.035156 C 61.679688 73.066406 61.984375 73.539062 61.777344 74.039062 L 57.898438 83.265625 "/>
<path style=" stroke:none;fill-rule:nonzero;fill:rgb(39.607843%,84.313725%,80%);fill-opacity:1;" d="M 57.574219 83.265625 L 36.339844 83.265625 L 36.339844 82.835938 C 36.339844 82.730469 36.425781 82.644531 36.53125 82.644531 L 57.574219 82.644531 L 57.574219 83.265625 "/>
<path style=" stroke:none;fill-rule:nonzero;fill:rgb(89.019608%,89.019608%,91.372549%);fill-opacity:1;" d="M 89.007812 85.652344 L 11.839844 85.652344 L 11.839844 83.25 L 89.007812 83.25 L 89.007812 85.652344 "/>
<path style=" stroke:none;fill-rule:nonzero;fill:rgb(86.27451%,96.078431%,97.647059%);fill-opacity:1;" d="M 22.90625 41.320312 L 22.90625 42.675781 L 25.152344 42.675781 C 25.183594 42.675781 25.207031 42.648438 25.207031 42.621094 C 25.207031 42.589844 25.183594 42.566406 25.152344 42.566406 C 25.054688 42.566406 24.976562 42.484375 24.976562 42.386719 C 24.976562 42.289062 25.054688 42.210938 25.152344 42.210938 L 25.285156 42.210938 C 25.332031 42.210938 25.375 42.171875 25.375 42.121094 C 25.375 42.074219 25.332031 42.03125 25.285156 42.03125 C 25.1875 42.03125 25.109375 41.953125 25.109375 41.855469 C 25.109375 41.757812 25.1875 41.679688 25.285156 41.679688 L 25.324219 41.679688 C 25.378906 41.679688 25.425781 41.632812 25.425781 41.578125 C 25.425781 41.523438 25.378906 41.476562 25.324219 41.476562 L 25.285156 41.476562 C 25.1875 41.476562 25.109375 41.398438 25.109375 41.300781 C 25.109375 41.203125 25.1875 41.121094 25.285156 41.121094 C 25.332031 41.121094 25.375 41.082031 25.375 41.03125 C 25.375 40.984375 25.332031 40.941406 25.285156 40.941406 L 24.320312 40.941406 C 24.257812 40.941406 24.199219 40.910156 24.167969 40.855469 C 24.136719 40.800781 24.136719 40.734375 24.164062 40.679688 C 24.171875 40.671875 24.300781 40.414062 24.175781 39.964844 C 24.160156 39.90625 24.136719 39.867188 24.105469 39.851562 C 24.109375 39.976562 24.097656 40.144531 24.03125 40.300781 C 23.957031 40.46875 23.808594 40.628906 23.691406 40.722656 C 23.4375 40.925781 23.394531 41.15625 23.390625 41.167969 C 23.378906 41.25 23.304688 41.316406 23.21875 41.316406 Z M 22.726562 43.027344 C 22.679688 43.027344 22.636719 43.011719 22.601562 42.976562 C 22.570312 42.945312 22.550781 42.898438 22.550781 42.851562 L 22.550781 41.144531 C 22.550781 41.046875 22.628906 40.96875 22.726562 40.96875 L 23.085938 40.964844 C 23.136719 40.828125 23.246094 40.625 23.472656 40.445312 C 23.554688 40.378906 23.660156 40.265625 23.703125 40.164062 C 23.789062 39.964844 23.734375 39.726562 23.734375 39.722656 C 23.714844 39.636719 23.761719 39.546875 23.84375 39.515625 C 23.867188 39.507812 24.070312 39.4375 24.261719 39.535156 C 24.347656 39.578125 24.460938 39.671875 24.515625 39.871094 C 24.601562 40.175781 24.59375 40.417969 24.558594 40.589844 L 25.285156 40.589844 C 25.53125 40.589844 25.730469 40.789062 25.730469 41.03125 C 25.730469 41.121094 25.703125 41.203125 25.660156 41.269531 C 25.734375 41.351562 25.78125 41.457031 25.78125 41.578125 C 25.78125 41.695312 25.734375 41.804688 25.660156 41.882812 C 25.703125 41.953125 25.730469 42.035156 25.730469 42.121094 C 25.730469 42.273438 25.652344 42.40625 25.539062 42.484375 C 25.554688 42.527344 25.5625 42.574219 25.5625 42.621094 C 25.5625 42.84375 25.378906 43.027344 25.152344 43.027344 L 22.726562 43.027344 "/>
<path style=" stroke:none;fill-rule:nonzero;fill:rgb(86.27451%,96.078431%,97.647059%);fill-opacity:1;" d="M 90.699219 17.5625 L 90.464844 17.648438 C 90.378906 17.679688 90.328125 17.769531 90.347656 17.859375 C 90.359375 17.910156 90.40625 17.941406 90.460938 17.9375 C 91.457031 17.824219 92.304688 16.890625 92.308594 15.898438 C 92.308594 15.84375 92.265625 15.796875 92.210938 15.789062 C 92.121094 15.78125 92.035156 15.839844 92.015625 15.929688 L 91.957031 16.1875 C 91.964844 16.21875 92.011719 16.285156 92.0625 16.324219 C 92.109375 16.367188 92.128906 16.429688 92.117188 16.492188 C 92.035156 16.917969 91.453125 17.554688 91.023438 17.683594 C 90.964844 17.703125 90.902344 17.6875 90.855469 17.648438 C 90.804688 17.605469 90.730469 17.5625 90.699219 17.5625 Z M 90.445312 18.292969 C 90.238281 18.292969 90.050781 18.148438 90.003906 17.9375 C 89.941406 17.675781 90.089844 17.40625 90.34375 17.316406 L 90.585938 17.230469 C 90.738281 17.171875 90.898438 17.246094 91 17.3125 C 91.269531 17.179688 91.640625 16.785156 91.746094 16.507812 C 91.667969 16.414062 91.570312 16.265625 91.613281 16.105469 L 91.671875 15.851562 C 91.730469 15.585938 91.976562 15.410156 92.246094 15.4375 C 92.484375 15.460938 92.664062 15.660156 92.664062 15.898438 C 92.660156 17.082031 91.6875 18.152344 90.5 18.289062 C 90.480469 18.289062 90.464844 18.292969 90.445312 18.292969 "/>
<path style=" stroke:none;fill-rule:nonzero;fill:rgb(86.27451%,96.078431%,97.647059%);fill-opacity:1;" d="M 78.171875 27.121094 C 77.40625 27.273438 76.90625 28.015625 77.054688 28.78125 C 77.207031 29.550781 77.953125 30.050781 78.71875 29.898438 C 79.484375 29.746094 79.984375 29 79.832031 28.234375 C 79.683594 27.46875 78.9375 26.96875 78.171875 27.121094 Z M 78.789062 30.246094 C 77.828125 30.433594 76.898438 29.808594 76.707031 28.851562 C 76.519531 27.894531 77.144531 26.960938 78.101562 26.773438 C 79.058594 26.585938 79.992188 27.210938 80.179688 28.167969 C 80.371094 29.125 79.746094 30.058594 78.789062 30.246094 "/>
<path style=" stroke:none;fill-rule:nonzero;fill:rgb(86.27451%,96.078431%,97.647059%);fill-opacity:1;" d="M 78.277344 27.652344 C 77.804688 27.746094 77.496094 28.207031 77.589844 28.679688 C 77.683594 29.148438 78.140625 29.457031 78.613281 29.363281 C 79.085938 29.273438 79.394531 28.8125 79.300781 28.339844 C 79.207031 27.871094 78.746094 27.5625 78.277344 27.652344 Z M 78.683594 29.710938 C 78.019531 29.84375 77.371094 29.410156 77.242188 28.746094 C 77.113281 28.082031 77.542969 27.4375 78.207031 27.308594 C 78.871094 27.175781 79.515625 27.609375 79.648438 28.273438 C 79.777344 28.933594 79.34375 29.582031 78.683594 29.710938 "/>
<path style=" stroke:none;fill-rule:nonzero;fill:rgb(86.27451%,96.078431%,97.647059%);fill-opacity:1;" d="M 78.601562 27.035156 C 78.507812 27.054688 78.414062 26.992188 78.394531 26.894531 L 78.25 26.167969 C 78.230469 26.070312 78.292969 25.976562 78.390625 25.960938 C 78.488281 25.941406 78.578125 26.003906 78.597656 26.097656 L 78.742188 26.828125 C 78.761719 26.921875 78.699219 27.015625 78.601562 27.035156 "/>
<path style=" stroke:none;fill-rule:nonzero;fill:rgb(86.27451%,96.078431%,97.647059%);fill-opacity:1;" d="M 77.738281 27.207031 C 77.644531 27.226562 77.550781 27.164062 77.53125 27.066406 L 77.386719 26.335938 C 77.367188 26.242188 77.429688 26.148438 77.527344 26.128906 C 77.625 26.109375 77.714844 26.171875 77.734375 26.269531 L 77.878906 26.996094 C 77.898438 27.09375 77.835938 27.1875 77.738281 27.207031 "/>
<path style=" stroke:none;fill-rule:nonzero;fill:rgb(86.27451%,96.078431%,97.647059%);fill-opacity:1;" d="M 78.847656 26.230469 L 77.207031 26.554688 C 77.113281 26.574219 77.019531 26.511719 77 26.414062 C 76.980469 26.316406 77.042969 26.226562 77.140625 26.207031 L 78.777344 25.882812 C 78.875 25.863281 78.96875 25.925781 78.988281 26.023438 C 79.003906 26.117188 78.941406 26.210938 78.847656 26.230469 "/>
<path style=" stroke:none;fill-rule:nonzero;fill:rgb(86.27451%,96.078431%,97.647059%);fill-opacity:1;" d="M 79.871094 27.210938 C 79.824219 27.21875 79.773438 27.210938 79.730469 27.179688 L 79.433594 26.960938 C 79.355469 26.902344 79.335938 26.792969 79.394531 26.714844 C 79.453125 26.632812 79.5625 26.617188 79.644531 26.675781 L 79.941406 26.894531 C 80.019531 26.949219 80.035156 27.0625 79.976562 27.140625 C 79.949219 27.179688 79.910156 27.203125 79.871094 27.210938 "/>
<path style=" stroke:none;fill-rule:nonzero;fill:rgb(86.27451%,96.078431%,97.647059%);fill-opacity:1;" d="M 78.480469 28.683594 C 78.429688 28.691406 78.378906 28.683594 78.335938 28.648438 C 78.257812 28.589844 78.246094 28.476562 78.304688 28.398438 L 78.664062 27.941406 C 78.722656 27.867188 78.835938 27.851562 78.914062 27.914062 C 78.988281 27.972656 79.003906 28.085938 78.941406 28.160156 L 78.585938 28.617188 C 78.558594 28.652344 78.519531 28.675781 78.480469 28.683594 "/>
<path style=" stroke:none;fill-rule:nonzero;fill:rgb(86.27451%,96.078431%,97.647059%);fill-opacity:1;" d="M 9.546875 16.3125 L 9.488281 15.964844 L 10.011719 15.878906 L 10.066406 16.226562 L 9.546875 16.3125 "/>
<path style=" stroke:none;fill-rule:nonzero;fill:rgb(86.27451%,96.078431%,97.647059%);fill-opacity:1;" d="M 10.066406 15.746094 L 9.984375 15.234375 L 10.332031 15.175781 L 10.414062 15.6875 L 10.066406 15.746094 "/>
<path style=" stroke:none;fill-rule:nonzero;fill:rgb(86.27451%,96.078431%,97.647059%);fill-opacity:1;" d="M 10.636719 16.136719 L 10.578125 15.785156 L 11.070312 15.707031 L 11.128906 16.054688 L 10.636719 16.136719 "/>
<path style=" stroke:none;fill-rule:nonzero;fill:rgb(86.27451%,96.078431%,97.647059%);fill-opacity:1;" d="M 10.246094 16.863281 L 10.160156 16.320312 L 10.507812 16.265625 L 10.597656 16.804688 L 10.246094 16.863281 "/>
<path style=" stroke:none;fill-rule:nonzero;fill:rgb(86.27451%,96.078431%,97.647059%);fill-opacity:1;" d="M 64.402344 13.558594 C 64.320312 13.558594 64.242188 13.582031 64.171875 13.625 C 64.074219 13.6875 64.003906 13.785156 63.980469 13.894531 C 63.925781 14.128906 64.070312 14.363281 64.304688 14.417969 C 64.539062 14.472656 64.773438 14.328125 64.824219 14.09375 C 64.878906 13.859375 64.734375 13.625 64.5 13.570312 C 64.46875 13.5625 64.433594 13.558594 64.402344 13.558594 Z M 64.402344 14.785156 C 64.34375 14.785156 64.285156 14.777344 64.222656 14.761719 C 63.800781 14.664062 63.535156 14.238281 63.632812 13.816406 C 63.683594 13.609375 63.808594 13.4375 63.984375 13.324219 C 64.164062 13.214844 64.375 13.179688 64.582031 13.226562 C 65.003906 13.324219 65.269531 13.75 65.171875 14.171875 C 65.085938 14.539062 64.761719 14.785156 64.402344 14.785156 "/>
</g>
</svg>
